<svg width="210" height="32" viewBox="0 0 210 32" fill="none" xmlns="http://www.w3.org/2000/svg">
<g clip-path="url(#clip0_8_8)">
<circle cx="16" cy="16" r="16" fill="white"/>
<rect x="11" y="5" width="3" height="22" fill="#C4132F"/>
<path d="M24 13.5L13.5 19.9952L13.5 7.00481L24 13.5Z" fill="#C4132F"/>
</g>
<path d="M42.9 19.8519L48.3636 19.5096C48.4819 20.397 48.7228 21.0731 49.0862 21.5379C49.6778 22.29 50.5229 22.6661 51.6215 22.6661C52.4412 22.6661 53.0708 22.4759 53.5103 22.0956C53.9582 21.7069 54.1821 21.259 54.1821 20.7519C54.1821 20.2702 53.9709 19.8392 53.5483 19.4589C53.1258 19.0786 52.1455 18.7194 50.6074 18.3814C48.089 17.8152 46.2931 17.063 45.2198 16.125C44.1381 15.1869 43.5972 13.9911 43.5972 12.5375C43.5972 11.5826 43.8719 10.6825 44.4212 9.83742C44.979 8.98387 45.8114 8.31624 46.9185 7.83453C48.034 7.34437 49.5594 7.09929 51.4947 7.09929C53.8695 7.09929 55.678 7.54297 56.9203 8.43033C58.171 9.30923 58.9147 10.7121 59.1513 12.6389L53.7385 12.9558C53.5948 12.1192 53.2906 11.5107 52.8258 11.1304C52.3694 10.7501 51.7356 10.56 50.9243 10.56C50.2566 10.56 49.7538 10.7037 49.4158 10.991C49.0777 11.2699 48.9087 11.6121 48.9087 12.0178C48.9087 12.3136 49.0482 12.5798 49.327 12.8164C49.5975 13.0615 50.2397 13.2897 51.2539 13.5009C53.7638 14.0418 55.5597 14.5911 56.6414 15.1489C57.7316 15.6982 58.5217 16.3827 59.0119 17.2025C59.5105 18.0222 59.7598 18.9392 59.7598 19.9533C59.7598 21.1449 59.4302 22.2435 58.7711 23.2492C58.1119 24.2549 57.1907 25.0197 56.0076 25.5436C54.8244 26.0592 53.3328 26.3169 51.5328 26.3169C48.3721 26.3169 46.1833 25.7084 44.9663 24.4915C43.7494 23.2745 43.0606 21.728 42.9 19.8519ZM62.6501 7.4162H78.0394V11.384H68.4052V14.3376H77.3422V18.1279H68.4052V21.7914H78.3183V26H62.6501V7.4162ZM90.7666 19.2688V15.4024H99.6402V23.3253C97.9415 24.483 96.4373 25.2732 95.1273 25.6958C93.8259 26.1099 92.2793 26.3169 90.4877 26.3169C88.282 26.3169 86.4819 25.9408 85.0875 25.1887C83.7016 24.4366 82.6241 23.3168 81.855 21.8294C81.0944 20.342 80.7141 18.6349 80.7141 16.7081C80.7141 14.6799 81.1325 12.9178 81.9691 11.422C82.8058 9.91771 84.0312 8.77682 85.6453 7.99933C86.9045 7.3993 88.5989 7.09929 90.7286 7.09929C92.7822 7.09929 94.316 7.28521 95.3302 7.65706C96.3527 8.0289 97.1978 8.6078 97.8655 9.39374C98.5416 10.1712 99.0486 11.16 99.3867 12.3601L93.847 13.3488C93.6188 12.6474 93.2301 12.1107 92.6808 11.7389C92.1399 11.3671 91.4469 11.1811 90.6018 11.1811C89.3426 11.1811 88.3369 11.6206 87.5848 12.4995C86.8411 13.3699 86.4693 14.7517 86.4693 16.6447C86.4693 18.6561 86.8453 20.0927 87.5975 20.9547C88.3581 21.8167 89.4145 22.2477 90.7666 22.2477C91.4089 22.2477 92.0216 22.1548 92.6047 21.9689C93.1878 21.7829 93.8555 21.466 94.6076 21.0181V19.2688H90.7666ZM103.038 7.4162H118.427V11.384H108.793V14.3376H117.73V18.1279H108.793V21.7914H118.706V26H103.038V7.4162ZM121.811 7.4162H127.554V21.4238H136.516V26H121.811V7.4162ZM143.957 26V9.60924H137.835V7.4162H152.565V9.60924H146.417V26H143.957ZM155.151 26V7.4162H168.588V9.60924H157.61V15.301H167.891V17.4814H157.61V23.807H169.019V26H155.151ZM170.375 26L177.512 7.4162H180.162L187.767 26H184.966L182.798 20.3716H175.028L172.987 26H170.375ZM175.737 18.3687H182.038L180.098 13.2221C179.507 11.6586 179.067 10.3741 178.78 9.36839C178.543 10.56 178.209 11.7431 177.778 12.9178L175.737 18.3687ZM189.656 26V7.4162H193.358L197.757 20.5744C198.162 21.7998 198.458 22.7168 198.644 23.3253C198.855 22.6492 199.185 21.6562 199.633 20.3463L204.082 7.4162H207.391V26H205.02V10.4459L199.62 26H197.402L192.027 10.1797V26H189.656Z" fill="white"/>
<defs>
<clipPath id="clip0_8_8">
<rect width="32" height="32" fill="white"/>
</clipPath>
</defs>
</svg>
