<svg width="720" height="503" viewBox="0 0 720 503" fill="none" xmlns="http://www.w3.org/2000/svg">
<g clip-path="url(#clip0_18_90)">
<path d="M0 0H720V503H0V0Z" fill="#E5EAEE"/>
<path d="M642.686 355.372L643.493 356.018L646.721 360.698L648.98 361.505L652.047 363.604L654.307 368.768L654.468 372.319L653.661 376.516L654.145 379.905L652.854 381.196L653.984 384.425L654.307 387.491L656.243 391.042L658.18 392.818L660.278 396.691L662.861 396.368L664.959 398.144V399.919L666.734 402.825L665.443 407.021L662.699 408.312L660.763 413.316L660.278 416.544L659.31 417.351L656.243 417.835L653.5 419.933L655.114 423.484L653.661 424.614L653.177 427.035L652.047 428.165L647.689 426.712L646.559 422.677L643.816 418.319L635.907 414.123L633.97 412.347L634.616 409.926L634.454 407.667L632.195 403.793L632.679 399.596L633.97 396.046L633.486 391.688L633.647 388.298L632.518 383.617L633.325 380.228L634.777 378.13L634.454 374.579L632.033 372.804L629.451 372.481V367.477L628.967 366.509H631.711L628.967 361.989L634.132 353.435L635.907 353.919L637.198 357.309L642.686 355.372Z" fill="white" stroke="white" stroke-width="0.1" stroke-linecap="round" stroke-linejoin="round"/>
<path d="M269.368 356.502L264.848 358.277L263.719 357.632V354.242L265.171 353.112L269.368 354.081V356.502Z" fill="white" stroke="white" stroke-width="0.1" stroke-linecap="round" stroke-linejoin="round"/>
<path d="M566.989 204.944L565.537 208.818L565.698 210.109L568.28 214.79L571.993 219.47L571.024 220.6L570.056 223.667L571.186 226.895L564.891 227.379L560.856 225.926L558.758 228.186L562.954 229.316L563.761 231.091L562.954 233.351L559.403 235.288L560.049 237.709L559.242 238.839L561.017 241.421L560.533 244.326L556.498 245.133L553.593 247.877L551.495 249.33L551.333 252.397L547.46 251.589L544.877 251.912L541.165 253.688L536.646 253.365L532.45 253.688L529.383 254.818L527.769 256.916L522.927 258.853L514.857 257.723L506.787 256.27L502.591 255.463L496.135 254.979L482.254 252.558L480.479 251.751L475.475 246.102V242.39L467.89 244.811L462.886 244.488L457.399 244.972L455.139 245.94L453.202 249.491L451.427 250.137L448.037 249.491L446.585 248.2L441.743 247.716L440.936 245.295L439.645 244.811L436.417 247.877L432.704 247.232L430.283 245.94L429.638 244.326L424.312 243.035L424.796 241.744L423.02 237.709L424.634 232.867L423.182 231.737L425.926 230.93L427.055 230.123L432.704 232.705L434.157 234.965L436.094 235.449L435.932 237.547L438.515 236.74L440.129 234.158L440.452 231.091L444.971 230.93L449.329 231.575L451.588 234.642L457.721 233.835L459.497 232.382L465.791 229.961L474.991 229.154L475.153 226.895L478.381 227.379L480.802 228.67L484.837 227.863L486.612 228.67L486.935 230.446L488.872 231.898L491.615 232.544L492.1 230.123L491.615 227.056L488.872 226.572L489.84 224.474L489.679 222.375L485.644 217.856L486.612 215.758L491.615 212.853L496.296 211.561L497.91 209.947L499.04 205.267L502.752 206.719L504.85 205.267L505.173 200.747L508.724 202.684L510.015 204.782L516.31 205.428L518.569 204.298L522.604 204.944L522.766 203.168L524.864 200.586H526.801L527.285 195.421L529.222 195.098L531.804 196.39L534.064 195.744L541.811 198.488L544.232 198.326L549.074 201.07L555.207 201.393L557.144 199.94L565.375 202.361L566.989 204.944Z" fill="white" stroke="white" stroke-width="0.1" stroke-linecap="round" stroke-linejoin="round"/>
<path d="M344.58 151.519L347.162 150.712L348.454 152.004L350.39 152.165L355.232 155.877L354.587 158.298L357.331 159.428L357.976 162.656L354.264 164.754L353.296 167.498L350.552 166.368L348.454 168.467L346.194 172.502L345.871 175.246L349.099 179.119L347.324 181.863L341.836 182.509L337.317 178.312L331.991 175.891L329.247 175.73L328.601 172.502L327.633 171.533L328.924 167.175L325.858 168.144L325.051 170.404L322.952 171.372L319.402 171.856L315.689 171.372L314.882 170.404L316.012 168.144L314.882 167.014L315.528 164.432L312.946 162.656L307.135 162.011L305.683 162.495L304.714 159.267L297.935 157.491L297.128 154.263L294.546 151.358L289.381 152.972L284.701 149.098V147.161L283.248 143.611L291.479 139.575L299.065 136.832L299.549 138.93L301.486 140.06L303.423 139.091L309.718 140.867L314.882 138.446L315.851 136.509L319.24 136.993L318.917 135.54L321.177 134.411L323.598 135.702L326.019 134.088L327.794 136.186L331.829 134.895L332.636 137.477L336.833 139.737L339.899 139.091L342.643 141.19L346.84 142.965L345.226 147.646L343.45 149.744L344.58 151.519Z" fill="white" stroke="white" stroke-width="0.1" stroke-linecap="round" stroke-linejoin="round"/>
<path d="M811.994 325.512L812.317 331.484L810.865 334.389L807.637 333.421L804.086 334.228L802.472 337.456L800.535 339.393V343.589L801.181 350.368L798.598 351.498L793.918 357.47L798.76 360.375L801.503 363.926L805.377 367.961L806.184 369.898L803.44 369.575L801.988 370.221H799.082L796.661 371.189L791.174 367.154L785.525 367.639L783.104 369.414L777.616 370.06L776.002 373.611L772.936 374.095L772.451 376.354L769.869 375.547L767.287 377.323L768.416 378.937L769.869 383.295L769.546 384.586L765.511 386.523L762.606 386.039L757.441 386.684L751.954 388.137L749.21 386.361L743.238 384.424L741.785 385.393L737.912 383.133L735.975 380.389L733.393 381.196L726.614 381.035L726.291 382.488L723.224 382.81L718.382 384.586L714.186 384.263L710.312 384.586L708.698 386.2L703.856 385.877V379.098L704.663 376.354L703.211 374.74L700.467 369.414L694.979 366.509L689.653 361.344L691.267 360.86L693.043 358.116L690.783 353.435V348.109L692.558 347.14L695.464 346.979L697.239 344.396L699.821 341.653L700.306 339.393L697.723 337.779L695.625 335.196L690.944 332.775L687.071 326.481L686.102 322.607L686.748 318.895L690.137 317.281L690.46 314.214L691.913 313.084L698.853 317.119L695.948 320.347L697.4 323.253L703.372 322.284L709.667 322.768L718.221 324.382L723.87 325.028L727.905 324.221L743.077 326.965L749.855 327.288L753.568 326.319L756.15 324.867L758.087 322.284L763.413 318.895L768.578 316.958L775.679 315.505L780.36 314.86L787.623 318.572L792.788 319.218L794.24 320.186L796.984 319.379L801.019 323.575L804.57 324.705L808.766 325.512H811.994Z" fill="white" stroke="white" stroke-width="0.1" stroke-linecap="round" stroke-linejoin="round"/>
<path d="M616.055 297.428L620.574 296.298L622.995 297.589L622.188 301.625L619.606 305.982L619.444 310.179L620.251 311.47L624.125 313.407L629.451 318.088L628.967 319.379L623.963 319.218L623.156 320.509L628.321 326.481L627.998 330.032L623.963 329.547L622.834 330.839L617.669 331.646L619.928 335.196L616.216 335.519L612.988 338.263L612.181 341.007L612.343 343.428L609.599 343.751L608.792 344.881L609.76 349.723L611.536 352.305L611.374 353.596L609.599 355.211L606.855 354.081L596.848 347.947L595.88 346.495L593.297 346.656L591.522 345.688L592.006 343.105L587.164 339.07L584.743 336.488L584.098 332.937L580.224 331.161L572.154 324.544L569.41 321.316L564.891 317.604L561.179 313.73L559.081 307.274L553.593 302.109L550.526 300.011L550.365 297.751L550.849 289.681L552.786 288.712L555.691 289.358L558.435 292.263L561.34 293.877L565.698 288.712L570.863 289.197L573.284 287.26L577.642 289.842L581.677 290.004L586.196 291.133L588.94 290.165L591.522 292.263L595.073 290.649L597.978 291.133L600.883 290.811L605.08 291.94L608.63 292.263L610.406 293.554L612.504 297.105L616.055 297.428Z" fill="white" stroke="white" stroke-width="0.1" stroke-linecap="round" stroke-linejoin="round"/>
<path d="M755.343 21.9122L758.248 24.0104L760.185 23.3648L763.252 23.2034L768.255 26.7543L770.837 25.3017L773.258 24.8174L779.069 26.7543L779.392 30.4665L782.135 32.8876L785.525 30.7894L789.883 29.0139H795.37L799.728 30.4665L803.602 33.3718L809.251 35.6315L809.896 39.6666L808.928 42.5718L812.317 45.9613L813.124 48.0596L811.026 51.2876V54.5157L817.643 57.7438L818.45 58.5508L817.643 61.456L819.903 62.4245L822.808 66.2981L825.229 68.5578L833.138 71.9473L834.268 73.2385L833.622 77.7578L842.176 78.5648L847.341 80.663V82.4385L848.471 84.2139L852.99 86.4736L853.958 89.2175L849.762 90.8315L849.278 92.2841L844.436 95.1894L838.787 94.8666L834.913 92.4455L830.233 92.6069L827.973 96.9648L834.268 102.291L835.236 103.905L834.913 106.326L836.527 108.747L837.334 114.074L839.917 116.333L842.015 119.238L833.945 119.077L831.685 120.368L828.941 119.723L827.166 120.53L823.615 124.242L822.324 126.179L820.71 131.505L823.615 137.316L822.324 139.575L817.966 138.123L817.159 136.186L813.931 134.41L802.472 135.379L798.76 136.67L797.791 135.863L793.756 131.021L787.623 133.603L786.655 135.379L785.041 134.895L783.749 132.796L775.518 131.182L772.451 132.312L769.385 131.505L767.448 134.249L766.157 131.989L764.381 131.344L759.539 131.505L757.925 131.021L755.02 127.631H751.308L741.463 126.179L730.972 123.758L718.382 123.112L714.509 123.274L710.797 124.081L701.274 124.888L699.983 127.147L697.4 129.73L694.334 131.667L692.558 130.86L689.492 130.375L687.716 131.182L687.878 133.442L686.264 130.86L686.102 128.761L687.394 126.34L686.748 124.565L687.071 120.691L685.78 119.077L682.874 117.463L677.548 115.365V113.428L680.776 109.07L682.067 108.263L688.523 105.519L689.492 102.937L688.039 96.642L685.295 90.8315L680.615 82.9227L677.225 74.6911L681.906 75.3367L684.488 74.8525L690.46 74.3683L693.043 75.8209L698.369 73.7227L701.274 73.8841L702.565 69.6876L705.793 70.0104L708.053 68.0736L711.442 67.2666L713.056 66.1367L715.8 69.849L719.028 69.5262V67.9122L717.575 66.1367L714.509 65.3297L715.316 62.1016L716.93 59.6806L716.284 55.9683L718.06 51.1262L722.256 50.1578L723.547 49.1894L725.161 45.9613L730.972 46.1227L731.617 44.3472L733.715 42.7332L727.421 41.1192L728.551 36.1157V33.2104L732.747 32.242L734.684 29.8209L736.459 29.3367L741.301 29.9823L746.305 30.1438L746.95 27.3999L750.985 23.5262L753.245 22.235L755.343 21.9122Z" fill="white" stroke="white" stroke-width="0.1" stroke-linecap="round" stroke-linejoin="round"/>
<path d="M415.757 227.863L417.049 229.639L421.245 231.737H423.182L424.634 232.867L423.02 237.709L422.213 240.13L422.375 242.874L424.312 243.035L429.638 244.326L430.283 245.94L432.704 247.232L436.417 247.877L439.645 244.81L440.936 245.295L441.743 247.716L440.936 252.719L441.743 255.625L438.676 255.302L437.062 253.849L434.964 254.333L433.996 257.239L436.417 262.888L434.48 263.372L432.22 260.305L431.09 260.144L426.41 261.919L423.182 260.628L421.891 257.239L418.663 257.4V262.081L417.856 263.856L414.305 268.053L413.982 269.667L415.112 272.411L413.175 273.54L411.722 271.281L409.624 269.344L410.27 267.407L406.719 266.439L402.845 263.21L402.522 259.175L400.908 258.207L395.421 262.888L396.389 265.309L393.807 268.86L389.933 271.119L384.93 269.828L380.733 271.442L376.86 272.249L374.6 271.119L373.148 268.86L369.435 265.147L370.242 262.403L368.951 258.853L365.4 258.368L362.334 258.53L358.622 260.951L359.429 263.049L355.716 265.632L353.457 265.47V263.856L355.878 262.242L356.362 259.821L355.071 258.691L356.846 254.01L361.688 250.46L362.495 245.779L365.885 244.326L372.018 237.87L372.986 236.417L370.888 234.642L373.793 232.382H375.569L376.86 233.674L381.218 233.189L382.509 230.93L384.93 229.8L386.544 230.284L391.063 230.446L396.389 229.477L400.586 229.8L400.263 227.379L402.361 225.442H404.459L406.719 227.056L408.01 226.733L409.785 228.186L415.757 227.863Z" fill="white" stroke="white" stroke-width="0.1" stroke-linecap="round" stroke-linejoin="round"/>
<path d="M520.345 149.421L523.734 148.775L523.573 145.709L528.899 147L529.383 148.775L530.997 150.551L538.421 152.326L542.779 154.102L544.07 155.554L549.235 154.425L552.14 156.361L551.011 158.137L548.428 160.074L551.011 161.526L554.239 164.432L556.66 167.498L558.274 168.144L563.923 164.109L561.179 160.235H563.277L566.828 161.203L572.154 164.27L577.964 163.14V165.723L575.705 166.53L580.063 170.242L581.677 171.21L584.582 169.596L590.231 172.502L591.038 172.179L595.396 173.47L596.203 176.375L600.722 179.926L601.529 182.509L597.01 182.993L593.782 185.414L592.813 186.705L589.101 188.642L587.971 193.484L585.389 194.775L581.999 197.842L579.578 198.972L576.835 199.295L571.024 198.488L568.765 200.425L566.989 204.944L565.375 202.361L557.144 199.94L555.207 201.393L549.074 201.07L544.232 198.326L541.811 198.488L534.064 195.744L531.804 196.389L529.222 195.098L527.285 195.421L526.801 200.586H524.864L522.766 203.168L522.604 204.944L518.569 204.298L516.31 205.428L510.015 204.782L508.724 202.684L505.173 200.747L504.205 199.618L499.524 196.067H497.426L495.328 193.484L491.293 191.063L486.612 186.867H484.514L480.802 183.639L477.896 179.281L475.637 176.86L477.574 174.116L476.605 171.533L472.893 169.435L468.858 163.947L469.665 162.817L472.732 166.046L475.798 161.849L477.574 160.881L481.77 159.912L485.159 160.558L486.451 158.46L489.679 157.975L490.647 156.361L493.229 155.232L495.005 155.393L495.973 153.456L503.075 151.842L508.724 149.421L511.79 148.453L509.369 146.032L510.661 145.063L514.211 145.709L516.632 148.13V149.582L518.892 150.551L520.345 149.421Z" fill="white" stroke="white" stroke-width="0.1" stroke-linecap="round" stroke-linejoin="round"/>
<path d="M502.591 76.3054L497.103 76.1439L496.78 73.4001L495.005 71.786L494.843 70.172L502.429 74.3685L502.591 76.3054ZM446.423 63.2317H443.518L441.259 62.1018L442.55 60.4878L445.294 61.1334L446.423 63.2317ZM492.1 64.0387L490.001 65.1685H487.903L485.805 67.2668L482.416 65.4913L481.609 63.7159L481.77 60.165L482.738 57.9053L485.966 56.4527L487.419 58.3896L490.163 59.358L489.356 62.1018L492.1 64.0387ZM416.887 53.386L419.792 54.5159L422.375 57.0983L422.536 59.358L419.792 61.9404L424.957 61.4562L426.248 63.3931L428.992 62.7474L436.255 65.6527L441.42 64.2001L442.55 66.4597L441.581 68.8808L438.031 71.4633L440.29 73.4001L443.68 73.0773L449.49 74.5299L454.816 70.4948L456.592 69.6878L462.402 69.2036L470.633 61.9404L479.188 63.3931L481.609 66.4597L487.58 69.8492L492.745 69.5264L494.843 72.7545L496.135 76.7896L499.201 78.8878L503.72 79.6948L504.85 83.8913L507.755 90.5088L507.271 94.8668L504.205 97.772L503.075 100.354L505.657 102.614L510.983 106.004L513.243 108.747L512.275 112.944L515.503 116.656L516.794 119.723L515.664 123.919L514.373 125.695L517.439 130.698V133.281L520.99 134.733L523.573 139.898L522.927 143.611L520.345 149.421L518.892 150.551L516.632 149.583V148.13L514.211 145.709L510.661 145.063L509.369 146.032L511.79 148.453L508.724 149.421L503.075 151.842L495.973 153.456L495.005 155.393L493.229 155.232L490.647 156.361L489.679 157.975L486.451 158.46L485.159 160.558L481.77 159.912L477.574 160.881L475.798 161.849L472.732 166.046L469.665 162.818L468.858 163.947L472.893 169.435L476.605 171.533L477.574 174.116L475.637 176.86L477.896 179.281L480.802 183.639L484.514 186.867H486.612L491.293 191.063L495.328 193.484L497.426 196.067H499.524L504.205 199.618L505.173 200.747L504.85 205.267L502.752 206.719L499.04 205.267L497.91 209.947L496.296 211.561L491.615 212.853L486.612 215.758L485.644 217.856L489.679 222.376L489.84 224.474L488.872 226.572L491.615 227.056L492.1 230.123L491.615 232.544L488.872 231.898L486.935 230.446L486.612 228.67L484.837 227.863L480.802 228.67L478.381 227.379L475.153 226.895L474.991 229.154L465.791 229.961L459.497 232.383L457.721 233.835L451.588 234.642L449.329 231.575L444.971 230.93L440.452 231.091L440.129 234.158L438.515 236.74L435.932 237.547L436.094 235.449L434.157 234.965L432.704 232.705L427.055 230.123L425.926 230.93L422.375 228.993L414.143 225.281L415.757 227.863L409.786 228.186L408.01 226.733L406.719 227.056L404.459 225.442H402.361L400.263 227.379L400.586 229.8L396.389 229.477L391.063 230.446L386.544 230.284L384.93 229.8L383.155 227.702V225.281L384.123 222.053L383.8 218.179L384.284 215.758L385.898 212.853L388.158 203.975L393.807 197.842L393.646 195.744L391.063 194.776L383.316 193.484L380.088 191.225L375.246 192.193L371.857 192.032L371.372 190.579L369.113 189.933L366.208 191.063L360.559 184.123L358.299 183.961L359.267 179.119L360.72 177.667V175.407L356.201 173.632L353.78 171.049L353.296 167.498L354.264 164.754L357.976 162.656L357.331 159.428L354.587 158.298L355.232 155.877L350.39 152.165L351.359 148.291L348.292 146.354L349.099 145.063L352.65 142.481L351.52 140.544L353.618 136.025V134.088L348.615 127.47L349.745 125.695L352.65 124.565L356.362 125.856L363.625 123.758L364.755 122.144L363.141 120.691L363.625 119.239L367.822 116.656L368.79 112.46L367.499 110.846L363.302 110.361L362.173 108.747L363.141 106.165L368.144 106.326L369.92 100.193L371.05 97.4492L370.888 90.5088L368.144 88.2492L368.951 83.8913L370.727 81.6317L372.179 80.9861L378.635 80.5018L385.898 80.6632L388.965 84.2141L387.997 86.1509L390.579 86.6352L392.032 82.7615L394.291 84.0527L396.067 83.8913L395.26 81.1475L395.582 78.565L397.035 76.3054L402.361 77.2737L408.172 76.7896L408.333 75.8211L403.814 75.0141L402.361 73.2387L402.038 66.9439L399.617 65.6527L397.035 66.1369V63.7159L402.523 61.9404V60.3264L397.035 54.1931L396.712 51.6106L401.07 51.772L409.463 53.8702L414.466 52.7404L416.887 53.386Z" fill="white" stroke="white" stroke-width="0.1" stroke-linecap="round" stroke-linejoin="round"/>
<path d="M447.069 51.7719L450.458 53.386L454.332 53.8702L454.978 56.9369L449.329 58.0667L441.097 54.6772L441.259 50.6421L444.971 50.3193L447.069 51.7719ZM469.181 49.9965L465.469 50.1579L462.402 51.7719L461.918 49.8351L464.5 48.221L466.437 48.5439L469.181 49.9965ZM422.698 51.9334L420.761 52.2561L418.017 51.4491L417.049 47.7369L421.406 49.5123L422.698 51.9334ZM435.61 55.1614L433.35 52.7404L437.385 48.0597L438.515 47.7369L435.61 55.1614ZM516.471 48.7053L512.597 48.3825L508.724 46.7684L508.885 43.5404L509.692 42.0877L516.955 45.8L516.471 48.7053ZM432.382 34.6632L436.094 41.6035L435.932 46.1228L433.027 48.0597H429.638L420.922 45.3158L418.178 40.6351L418.017 36.9228L425.764 34.6632L429.961 35.9544L432.382 34.6632ZM469.988 34.986L468.374 35.9544L467.244 34.5017L468.697 33.0491L469.988 34.986ZM431.413 30.4667H429.961V25.6246L432.382 28.207L431.413 30.4667ZM467.89 30.4667L468.051 32.8877L466.921 34.0176L463.693 35.1474L461.918 38.0526L465.146 39.9895L465.953 42.4106L464.339 43.5404L460.142 44.6702V53.7088L456.592 54.6772L454.171 51.2878L454.009 49.8351L451.911 44.8316L448.683 44.186L445.132 44.3474L442.711 41.4421L442.873 38.0526L441.259 34.8246L439.16 33.8561L439.806 31.5965L444.809 31.2737L447.23 28.207V26.7544L450.136 26.4316L451.427 27.5614L451.588 31.7579L454.171 32.5649L455.946 27.8842L454.493 26.1088L460.788 22.5579L462.563 22.3965L467.405 23.8492L466.76 27.2386L467.89 30.4667ZM416.887 53.386L414.466 52.7404L409.463 53.8702L401.07 51.7719L396.712 51.6105L395.905 48.221L394.614 45.9614L396.389 45.4772L394.937 39.1825L389.772 37.0842L385.737 34.8246L386.544 25.786L384.93 22.0737L385.091 10.9369L387.19 10.7755L392.193 12.0667L394.614 13.5193L395.582 10.4526L398.165 7.87017L401.393 6.57896L403.975 8.67719L404.459 1.41403L401.877 0.607012L399.779 1.25267L397.681 4.31932L396.067 8.193L393 8.51582L390.579 9.64562L386.705 7.38598L386.867 5.12634L389.449 2.05968L392.677 -1.00702H396.228L398.81 -1.9754L405.105 -1.81404L409.624 -3.91227L414.143 -9.7228L416.564 -12.1439L421.891 -12.9509L426.733 -15.6947L425.441 -11.6596L427.378 -8.91578V-4.07368L425.926 -2.45964L423.666 1.57544L423.989 10.614L428.024 13.0351H434.641L436.255 14.8105L435.125 18.3614L430.929 20.6211H429.476L427.217 18.8456L425.441 20.2983L423.505 28.5298L420.277 28.3684L418.34 29.1755L420.599 31.1123L418.501 32.4035L413.014 37.407L414.789 42.8947L414.466 44.3474L412.045 46.4456L411.077 48.221L414.789 48.7053L416.887 53.386Z" fill="white" stroke="white" stroke-width="0.1" stroke-linecap="round" stroke-linejoin="round"/>
<path d="M214.007 153.618L211.425 155.716L209.327 156.039L205.292 154.102V153.295L209.327 151.519L212.555 152.488L214.007 153.618ZM155.096 89.5403L157.195 90.9929L151.707 94.0596L149.77 93.0912L148.318 91.1544L148.156 88.0877L150.093 87.2807H152.998L155.096 89.5403ZM117.49 71.1403L114.101 71.7859H109.42L109.582 69.3649L107.322 68.5579L104.417 64.2L102.319 63.393L99.252 65.9754L100.059 67.4281L96.1854 70.3333L91.5048 69.8491L90.2136 68.7193L86.8241 68.0737L86.5014 66.4596L82.1436 63.2316L83.7576 60.9719L88.4381 59.5193L86.8241 57.2596L87.147 55.9684L89.7294 56.1298L93.2801 54.8386L95.217 52.2561L96.831 48.5438L99.8976 47.0912L101.996 48.0596L105.062 44.8316L109.582 44.6702L113.939 43.5403L120.234 44.0246L122.009 45.8L122.816 48.5438L124.915 51.2877L127.658 53.5474V55L124.43 56.7754L130.079 57.2596L132.016 61.2947L128.627 61.7789L128.465 64.0386L130.241 64.3614L129.272 66.6211L125.076 67.5894L122.816 71.1403L121.202 71.9473L117.49 71.1403ZM139.602 38.5368L135.406 37.7298L134.437 34.5017L135.89 32.2421L138.795 33.3719L139.763 35.4701L139.602 38.5368ZM121.041 27.0772L122.171 32.5649L118.297 34.6631L117.006 30.7895L114.746 32.4035L115.069 29.3368L117.49 28.8526L121.041 27.0772ZM123.785 29.821L122.009 27.8842L124.592 24.3333L127.336 22.7193L127.174 25.3017L123.785 29.821ZM127.82 17.2316L120.395 18.5228L121.364 13.6807L118.297 12.228L118.781 10.7754L122.171 9.96841L124.915 12.7122L128.304 13.6807L127.82 17.2316ZM101.673 -1.16842L99.252 -1.49125L98.6064 -3.75089L98.9291 -7.4632L101.512 -7.14037L101.673 -1.16842ZM122.332 -10.3684L122.171 -5.84917L126.851 -4.55791L130.079 -4.71932L130.725 -3.75089L125.399 0.606974L124.269 0.44561L123.946 -3.10529L121.687 -2.6211L118.62 -3.10529L116.683 -6.17194L112.325 -6.97896L110.873 -8.75441L113.132 -9.72284L113.617 -11.6597L118.136 -12.6281L120.557 -13.7579L122.009 -12.1439L122.332 -10.3684ZM103.126 -14.5649L105.062 -13.1123L103.287 -11.014H100.866L97.3151 -12.6281L97.638 -13.4351L103.126 -14.5649ZM122.171 -30.5439L119.588 -26.3474L117.974 -25.2176L117.652 -22.4737L112.81 -19.8912L107.645 -16.0176L105.385 -17.6316L109.582 -20.3755L106.192 -21.9895L105.869 -26.186L107.161 -27.3158L109.42 -26.186L112.487 -26.6702L111.357 -28.607L121.525 -33.772L122.171 -30.5439ZM178.338 -34.0948V-32.1579L176.24 -29.5755L172.689 -27.6386L165.91 -23.1193L161.875 -21.0211L161.068 -18.4386L163.328 -18.2772L163.651 -16.986L160.1 -14.4035L159.131 -11.9825L163.973 -12.6281L172.528 -15.0491L178.338 -14.2421L182.534 -14.7264L193.671 -14.4035L196.738 -14.8877L200.45 -12.7895L202.064 -10.0456L197.545 -4.55791L196.253 -0.845647L193.025 4.80348L189.959 8.03155L186.731 12.0666L183.341 13.8421L178.338 14.6491L185.601 17.7158L183.341 20.621L179.468 20.7824L175.756 23.5263L172.366 24.6561L178.177 26.4315L182.05 24.8175L186.408 24.6561L194.801 27.7228L200.611 33.2105L203.839 35.6316L204.646 37.407L208.036 48.5438L210.457 54.6772L213.039 57.5824L220.302 60.1649L222.077 61.1333L227.565 66.4596L233.053 70.3333L230.793 72.7544L231.439 74.6912L234.828 79.3719L235.312 81.9544L233.214 81.793L229.502 79.5333L229.018 80.6631L237.088 85.9895L239.67 89.2175L241.284 93.5754L240.316 95.3509L235.474 99.7088L239.993 101.968L241.93 101.646L245.158 98.2561L247.901 97.9333L254.68 98.4175L260.813 100.032L266.14 103.421L267.269 105.196L267.915 110.2L264.364 119.561L259.845 122.628L259.038 125.372L255.649 126.825L252.905 126.34L249.031 128.277L251.775 129.246V131.989L250 132.958L245.965 133.281L247.74 136.509L251.775 137.154L258.715 136.832L261.782 137.154L261.459 141.512L260.813 142.158L254.68 144.902L253.066 147.807L249.515 147.646L247.74 148.775L238.54 151.842L230.632 150.551L225.951 150.712L219.495 151.681L212.716 149.744L209.811 149.421L205.292 152.165L198.513 152.972L195.285 152.649L196.738 155.07L195.285 155.716L189.152 154.909L187.538 155.716L185.278 155.393L180.92 153.133L176.724 152.972L168.815 154.909L167.201 157.007L165.103 162.656L163.328 164.593L161.068 164.916L153.805 160.881L151.384 161.688L147.349 162.172L142.991 163.302L136.697 167.175L135.244 169.596L133.146 169.919L131.371 168.467L129.111 167.982L125.399 169.274L124.915 167.175L126.529 165.561L131.048 164.432L135.083 161.365L138.634 157.653L146.058 151.519L147.349 146.516L151.707 145.386L153.967 141.351L160.584 140.382H165.103L169.622 141.189L174.303 141.028L176.078 139.898L179.145 136.025L184.955 131.182L177.37 132.796L171.236 136.509L166.072 135.863L162.359 132.796L158.97 131.505L155.581 132.151L154.451 130.698L150.577 127.954H146.381L140.57 130.698L136.374 128.761L134.921 125.049L135.406 122.789L137.181 121.66L141.216 120.691L147.349 117.947L150.9 116.818L155.419 113.751L157.356 110.039L156.872 106.811L157.679 104.551L156.226 101.807L156.71 99.3859L151.868 99.8701L147.511 101.807L146.381 100.032L150.9 97.1263L152.514 94.8667L156.71 92.1228L162.521 90.0246L165.587 90.1859L171.559 89.0561L175.917 91.1544L174.626 87.7649L176.563 87.1193L176.724 83.2456L179.306 79.6947L177.37 78.7263L177.531 75.4982L179.952 74.207L181.082 70.0105L178.338 69.2035L174.949 70.1719L172.205 67.7508L167.686 61.9403L167.201 59.6807L169.784 54.6772L173.496 51.4491L170.429 50.1579L168.17 50.4807L163.812 52.4175L160.584 54.5158H157.195L155.903 53.0631L154.128 53.2245L150.093 55L144.444 52.9018L142.669 56.614L138.472 52.5789L137.988 49.5123H140.086L142.023 45.6386L146.704 39.1825L147.672 37.2456L146.865 34.986L143.798 32.5649L144.283 28.3684L145.574 26.7544L147.995 26.1088L144.928 24.1719L140.248 25.6245L137.342 27.0772L137.827 23.8491L136.858 23.2035L134.437 25.4632L134.599 30.7895L131.209 39.9895L129.434 41.4421L127.174 40.6351L128.95 34.3403L131.209 30.3053L130.241 29.821L130.725 24.0105L132.339 19.3298L135.083 13.1965L138.634 7.54735L132.016 11.9052L130.402 12.7122L126.529 12.0666L125.237 10.9368L123.623 7.22453L126.529 6.90175L129.272 5.1263L126.851 3.99646L129.272 2.54384L132.016 -0.845647L132.662 -3.9123L131.048 -6.33336L128.465 -7.30179L128.143 -8.75441L130.886 -11.8211L129.757 -14.2421L132.339 -19.2456L137.181 -19.0842L140.248 -19.7298L136.535 -22.9579L137.665 -27.6386L143.637 -28.1228L142.346 -31.0281L142.83 -34.2561L145.412 -35.7088L147.511 -35.386L149.125 -33.9334L153.321 -35.386L154.289 -34.0948L158.809 -35.0632L164.78 -35.5474L172.043 -36.5158L175.594 -37.1614L179.306 -36.8386L178.338 -34.0948ZM177.37 -40.5509L175.271 -40.3895L173.173 -42.6491L175.594 -43.1333L177.37 -40.5509ZM179.468 -46.0386L183.826 -45.0702L182.857 -42.8106L180.598 -43.9404L177.37 -43.4562L174.303 -45.0702L174.949 -48.4597L177.692 -48.6211L179.629 -47.8141L179.468 -46.0386ZM185.44 -49.7509L183.826 -49.2667L183.18 -51.2035L180.436 -52.1719L181.082 -53.4632L185.44 -49.7509ZM211.425 -81.2246L214.007 -78.3193L215.621 -77.5123L213.523 -71.379L213.2 -68.7965L211.586 -66.0527L210.295 -66.6983L211.748 -71.379L210.941 -73.1544L208.197 -72.6702L207.551 -74.1228L210.134 -76.3825L208.843 -79.6105L207.067 -79.9334L209.488 -82.5158L211.425 -81.2246ZM216.106 -80.579L213.846 -82.6772L215.944 -83.6456L216.106 -80.579Z" fill="white" stroke="white" stroke-width="0.1" stroke-linecap="round" stroke-linejoin="round"/>
<path d="M736.621 532.27H740.333L743.077 530.656L746.627 536.628L749.371 536.467L755.02 535.014L760.992 535.337L763.252 536.951L767.448 537.274L771.16 538.081L776.486 536.951L777.132 537.597L777.293 542.116L779.23 542.439L780.36 541.309L783.104 540.34H786.009L788.591 539.049L787.946 544.698L786.493 545.344L779.392 545.183L766.318 546.797L757.764 547.442L756.634 547.119L755.504 543.568L750.178 541.793L740.171 540.179L737.75 539.533L732.747 539.856L730.972 538.242L730.326 535.337L730.649 532.27L732.908 532.754L733.554 530.495L736.621 532.27ZM806.668 534.046L804.086 530.656L805.861 529.849L807.798 533.723L806.668 534.046ZM718.382 515.646L716.123 515.968L714.993 512.418L715.8 510.804L719.189 514.193L718.382 515.646ZM819.58 522.263L816.836 521.618L817.482 518.712L816.352 516.13L820.064 511.772L825.229 509.674L826.682 511.126L825.229 515.161L823.777 517.26L824.422 518.874L821.84 519.196L819.58 522.263ZM788.914 505.639L786.493 507.576L785.041 506.607L788.107 504.67L788.914 505.639ZM798.921 502.088V500.958L801.019 499.183L805.054 497.568L806.991 498.537L802.956 500.797L800.535 500.958L798.921 502.088ZM763.09 493.372L761.638 495.47L759.539 494.34L760.185 492.404L761.96 491.435L763.09 493.372ZM768.901 495.954L767.125 496.923L764.866 493.372L767.932 490.144L769.385 491.274L769.546 494.179L768.901 495.954ZM777.616 481.751L778.585 479.168L781.167 479.007V480.782L777.616 481.751ZM742.592 480.621L740.978 479.975L741.624 478.039L743.399 478.846L742.592 480.621ZM793.595 474.649L798.114 475.779L796.984 477.393L794.402 478.846L791.658 477.393L789.721 475.456L793.595 474.649ZM669.801 474.811L670.447 476.747L668.671 478.361L666.089 476.425L664.152 473.519L665.605 471.744L667.057 473.681L669.801 474.811ZM755.504 475.94L753.245 475.779L749.371 472.389L750.824 470.13L752.276 472.067L754.375 472.228L755.504 475.94ZM663.022 460.284L663.506 463.19L664.959 463.674L667.057 466.256L666.734 468.193L663.345 466.902L661.731 467.225L659.956 463.997L657.857 464.319L658.826 461.414L661.085 461.576L663.022 460.284ZM777.293 464.319L775.518 465.772L772.613 463.028L774.872 460.93L771.483 457.056L771.322 455.442L774.711 454.635L776.809 456.088L777.778 458.025L778.423 462.221L777.293 464.319ZM663.991 454.474L661.892 454.635L661.247 453.183L662.538 449.309L664.313 449.793L664.636 453.828L663.991 454.474ZM719.835 445.758L721.288 448.502L730.165 452.537L734.684 453.021L737.428 457.218L737.105 458.186L739.526 464.319L741.301 465.772L745.659 466.256L746.305 469.323L744.852 470.614L741.785 469.484L738.396 466.902L737.75 464.804L734.2 460.123L728.389 459.8L725.968 458.67L725 455.926L722.579 454.474L719.351 451.407L716.93 449.632L712.088 447.856L711.119 446.726L714.186 444.628L717.575 443.821L719.835 445.758ZM781.006 436.397L780.844 437.849L783.911 440.27L785.041 441.884L783.104 445.274L776.648 443.982L775.357 442.691L777.939 440.593L776.486 439.786L774.55 442.207L770.999 441.077L769.546 439.625L770.676 437.365L773.097 437.526L775.841 436.235V435.267L779.553 434.944L781.006 436.397ZM649.787 433.814L647.689 434.298L645.752 433.007L643.816 429.94L640.265 426.389L641.395 424.614L643.977 423.968L646.237 425.905L644.461 427.842L645.752 428.972L647.205 432.846L649.787 433.814ZM759.217 419.933L758.087 422.193L757.925 424.291L751.792 423.161L751.308 419.449L754.859 419.288L756.15 420.579L757.764 419.126L759.217 419.933ZM763.09 408.797L760.831 409.442L758.087 407.344L760.346 406.537L763.09 408.797ZM743.884 403.954L741.301 404.923L738.396 403.147L740.171 399.435L742.27 399.597L743.884 401.695V403.954ZM769.546 401.211L768.739 400.081L765.35 398.144L757.925 397.175L754.213 395.723L752.761 396.046L749.533 394.432L747.596 395.077L743.561 397.821L741.14 397.498L738.557 395.884L735.007 396.53L732.263 399.597L729.358 401.211L726.452 400.565H722.74L722.417 402.34L725.645 405.73L724.838 407.344L725.645 408.958L729.035 409.119L733.07 411.218L731.94 412.347L726.775 410.411L724.838 410.249L722.902 412.186L728.551 416.544L729.358 418.804L728.389 420.256L725.968 418.965L721.933 413.8L716.93 412.832L716.284 413.8L718.221 417.674L722.902 420.418L721.933 421.386L717.091 419.772L715.316 417.19L714.67 413.961L705.793 409.442L703.534 404.923L699.983 407.021L700.628 410.249L699.66 416.383L700.306 418.481L705.955 424.453L708.053 428.811L712.249 432.2L716.446 437.365L717.575 440.27L715.477 442.046L713.379 441.239L713.863 438.172L710.312 436.235L707.246 438.172L709.667 441.884L710.474 443.821L709.828 445.919L707.246 447.211L703.049 447.372L706.923 449.632L712.249 451.246L714.832 453.021L717.253 453.183L719.996 456.572L724.193 457.54L726.937 460.93L730.165 461.737L732.908 463.028L734.522 466.418L735.007 471.098L735.975 474.488L736.136 477.232L734.361 478.039L732.263 475.456L725.484 469.646L723.87 469L722.256 470.13L717.575 470.937L714.509 473.035L716.93 475.133L717.091 477.07L718.382 479.491L721.61 480.137L724.838 484.011L719.996 485.625L718.221 486.754L716.93 485.947L716.607 484.011L709.667 480.46L708.698 481.428L709.828 485.302L711.926 487.884L715.477 494.825L717.575 500.797L717.253 504.186L718.867 506.607L719.028 509.028L716.284 507.091L712.733 503.056L711.442 500.635L707.891 500.797L705.793 506.123L706.116 509.19L703.534 507.414L703.211 502.733L699.821 498.214L698.369 497.568L696.271 494.502L693.85 495.47L693.688 500.151L693.043 501.765L689.492 498.698L685.78 493.049L685.457 490.144L687.716 487.4L687.232 485.463L684.65 481.428L681.26 479.007L679.324 478.2L678.194 475.618L674.966 473.519V471.905L678.194 469.161L679.808 464.965L682.874 465.772L685.134 465.449L688.362 461.576L690.944 461.737L697.239 465.126L704.018 467.063L707.407 468.677L709.344 470.453L711.926 470.937L711.119 468.677L712.411 468.032H715.8L716.123 465.449L712.895 464.481L711.604 464.804L707.73 462.544L704.018 461.253L700.467 458.832L698.53 460.93H696.593L691.106 459.477L687.716 460.607L680.938 461.737L679.162 459.639L674.966 461.253L673.352 460.123L670.285 453.344L667.541 450.277L665.605 449.47L665.282 446.404L667.703 446.081L671.576 447.533L673.029 446.565L672.061 443.982L668.026 443.66L665.12 444.467L660.601 440.916L658.18 438.172L654.629 436.397L651.886 430.909L647.689 426.712L652.047 428.165L653.177 427.035L653.661 424.614L655.114 423.484L653.5 419.933L656.243 417.835L659.31 417.351L660.278 416.544L660.763 413.316L662.699 408.312L665.443 407.021L666.734 402.825L664.959 399.919V398.144L672.383 397.66L673.836 396.691L677.548 397.66L681.422 395.561L684.166 391.526L685.457 391.042L690.299 390.397L695.625 391.365L700.306 389.751L700.628 386.361L703.856 385.877L708.698 386.2L710.312 384.586L714.186 384.263L718.382 384.586L723.224 382.811L726.291 382.488L726.614 381.035L733.393 381.196L735.975 380.389L737.912 383.133L741.785 385.393L743.238 384.425L749.21 386.361L751.954 388.137L757.441 386.684L762.606 386.039L765.511 386.523L769.546 384.586L769.869 383.295L768.416 378.937L767.287 377.323L769.869 375.547L772.451 376.354L774.388 376.839L778.1 379.26L779.553 384.263L774.065 388.298L774.872 395.4L770.837 400.565L769.546 401.211Z" fill="white" stroke="white" stroke-width="0.1" stroke-linecap="round" stroke-linejoin="round"/>
<path d="M572.477 344.235L576.189 344.881L574.414 346.333L572.477 344.235ZM593.298 346.656L595.88 346.495L596.848 347.947L606.855 354.081L609.599 355.211L611.536 358.277L603.789 353.274L596.687 349.239L591.684 348.109L584.743 344.881L583.936 343.428L593.298 346.656ZM583.129 341.007L581.838 341.168L572.8 341.007L570.056 340.523L569.249 338.425L572.154 338.747L572.961 339.716L583.129 341.007ZM574.575 337.295L571.347 337.456L567.151 336.165L567.635 334.389L575.382 335.358L574.575 337.295ZM540.358 310.663L539.874 311.309L534.548 306.951L534.064 303.884L538.583 308.242L540.358 310.663ZM532.45 300.172L529.383 299.849L530.674 298.074L532.45 300.172ZM525.671 302.593L524.218 302.432L521.475 295.653L522.12 293.716L520.829 290.488L522.282 290.004L523.089 293.393L524.703 294.846L524.541 297.428L525.671 302.593ZM531.643 294.684L529.222 295.168L527.608 293.554L525.51 293.232L523.896 291.618L525.51 290.488L526.317 288.551L531.643 294.684ZM611.536 270.958L610.406 273.379L612.988 277.737L613.311 280.319L615.409 280.965L614.764 284.193L616.701 285.807L621.543 287.421L622.995 289.842L619.283 290.004L616.539 290.649L617.669 294.846L616.055 297.428L612.504 297.105L610.406 293.554L608.631 292.263L605.08 291.94L600.883 290.811L597.978 291.133L595.073 290.649L591.522 292.263L588.94 290.165L586.196 291.133L581.677 290.004L577.642 289.842L573.284 287.26L570.863 289.197L565.698 288.712L561.34 293.877L558.435 292.263L555.691 289.358L552.786 288.712L550.849 289.681L550.365 297.751L550.527 300.011L553.593 302.109L559.081 307.274L561.179 313.73L564.891 317.604L569.41 321.316L572.154 324.544L580.224 331.161L584.098 332.937L584.743 336.488L587.164 339.07L592.006 343.105L591.522 345.688L585.873 341.168L581.677 338.747L576.673 334.228L570.54 332.453L566.182 330.516L560.856 331.484L557.951 331.161L556.821 327.611L547.46 321.316L540.52 314.86L539.229 312.761L544.232 310.825L541.972 309.533L535.678 304.046L533.741 301.463L533.58 294.846L532.288 292.102L527.608 288.551L525.832 286.775L522.443 285.646L520.183 287.098L519.699 290.165L514.857 298.235H512.759L507.756 291.456L506.949 288.39L504.85 282.095L505.98 281.288L506.787 282.256L512.113 283.547L514.373 281.449L516.148 282.256L521.959 282.095L522.927 281.611L524.864 278.06L529.06 281.449L531.481 282.579L533.58 281.772L536.808 282.902L539.39 283.225L541.327 282.579L540.036 278.867L541.165 277.737L539.551 275.961L542.941 274.347L546.33 273.379L546.976 271.604L546.653 268.053L545.2 266.6L545.846 264.34L552.948 261.597L554.077 259.982H557.305V257.239L558.758 255.947L562.793 256.916L567.474 258.853L570.217 260.789L571.67 262.888L576.028 265.793L579.579 269.344L581.677 270.474L585.712 271.442L587.81 273.54L593.136 274.993L601.045 275.316L605.08 273.863L606.855 271.604L611.536 270.958Z" fill="white" stroke="white" stroke-width="0.1" stroke-linecap="round" stroke-linejoin="round"/>
<path d="M668.994 209.625H671.415L673.675 213.337L677.225 214.628L678.678 216.403L682.39 217.049L683.843 218.179L684.973 220.923L681.422 224.635L673.997 226.411L670.931 230.284L668.994 231.898L669.155 234.642L666.896 236.902L665.766 240.937L663.506 243.358V245.295L660.924 249.653L661.247 251.751L657.857 254.172L655.436 261.758L653.338 263.211L649.142 262.726L645.107 265.954L642.847 265.147L637.682 266.6L636.068 265.793L631.549 265.309L629.774 265.632L625.093 264.986L623.479 265.47L621.058 268.053L617.507 269.667L614.925 268.86L611.536 270.958L606.855 271.604L605.08 273.863L601.045 275.316L593.136 274.993L587.81 273.54L585.712 271.442L581.677 270.474L579.578 269.344L576.028 265.793L571.67 262.888L570.217 260.789L567.473 258.853L562.793 256.916L559.726 253.365L557.467 248.039L553.593 247.877L556.498 245.133L560.533 244.326L561.017 241.421L559.242 238.839L560.049 237.709L559.403 235.288L562.954 233.351L563.761 231.091L562.954 229.316L558.758 228.186L560.856 225.926L564.891 227.379L571.186 226.895L570.056 223.667L571.024 220.6L571.993 219.47L575.382 219.954L582.161 224.312L584.743 225.442L592.329 225.604L603.627 224.958L604.595 223.344L603.788 221.246L604.434 219.632L606.694 218.502L613.634 217.856L617.507 216.888L619.121 214.467L620.251 214.144L625.9 216.403L633.97 212.368L636.553 206.719L639.458 206.074L643.816 206.235L647.851 207.203L655.275 206.074L657.535 207.526L661.085 211.077L662.054 211.4L668.994 209.625Z" fill="white" stroke="white" stroke-width="0.1" stroke-linecap="round" stroke-linejoin="round"/>
<path d="M117.49 71.1403L118.62 72.9158L115.069 73.5614L117.49 81.9544L118.459 83.407V90.0246L119.911 95.1895L120.073 99.2245L117.974 102.13L116.522 105.519L116.199 108.425L113.617 111.814L111.196 113.267L113.778 115.688L109.259 116.979L105.062 116.495L102.964 117.786L96.6695 118.109L90.6978 119.239L87.954 122.144L83.919 123.274L82.305 124.888L78.5928 126.179L75.849 124.242L74.235 124.565L74.5578 127.954L69.8771 130.053L66.972 130.537L65.358 131.667L55.9968 133.926L52.9301 133.119L47.604 134.411L45.6671 134.249L48.2495 131.344L50.832 129.246L44.6988 130.214L42.4391 131.021L41.4708 130.053L46.6355 126.986L41.3094 127.147L36.4674 126.502L35.8218 124.888L40.5024 121.175L44.376 119.723L44.2145 118.27L35.9831 118.432L36.7901 116.656L39.534 115.042L42.4391 114.881L44.8601 115.849L46.6355 114.558L45.6671 111.814L51.9618 108.102L56.8038 107.618L62.13 106.488L67.4561 105.196L63.5825 103.26L59.8704 106.165L55.674 106.649L52.6074 105.842H49.218L53.5758 102.614L56.1581 99.8702L54.867 98.7404L58.095 95.028L63.9054 93.414L61.323 91.3158L55.0284 91.6386L52.7688 89.5403L48.5724 89.7017L49.218 87.7649L43.569 87.4421L44.376 85.8281L43.4075 84.0526L47.9268 83.0842L47.604 79.8561L50.6705 78.5649L53.8985 77.9193L54.06 76.1439L50.832 75.821L47.604 76.4666L48.8951 73.0772L47.604 71.4632L46.9584 68.7193L45.5058 67.1053L50.025 66.7824L51.9618 65.9754L59.5475 66.1368L62.6141 68.2351L65.358 66.2982L73.1051 67.7509L74.0735 63.5544L80.2068 61.1333L82.1435 57.9052L76.1718 58.5509L70.3614 56.9369L71.4911 55.6456L74.8805 54.5158L77.9471 51.9333L77.463 50.1579L80.2068 45.8L85.2101 44.5088H89.0838L91.6661 43.0561L93.603 46.2842L91.989 47.8983L92.9574 49.3509L94.8941 48.0597L94.0871 44.6702L95.5398 42.5719L98.6064 42.0877L99.5748 40.7965L104.74 43.5403L100.705 45.9614L99.8975 47.0912L96.831 48.5439L95.217 52.2561L93.2801 54.8386L89.7294 56.1298L87.147 55.9684L86.8241 57.2596L88.4381 59.5193L83.7575 60.9719L82.1435 63.2316L86.5014 66.4597L86.8241 68.0737L90.2135 68.7193L91.5048 69.8491L96.1854 70.3333L100.059 67.4281L99.252 65.9754L102.319 63.393L104.417 64.2L107.322 68.5579L109.582 69.3649L109.42 71.786H114.101L117.49 71.1403Z" fill="white" stroke="white" stroke-width="0.1" stroke-linecap="round" stroke-linejoin="round"/>
<path d="M558.596 464.319L556.66 468.354L552.14 475.295L549.719 483.526L550.204 486.754L552.786 489.014L551.656 489.821L554.239 492.726L554.4 494.824L551.495 497.891L550.849 500.635L551.011 503.056L546.33 502.088L544.07 502.572L538.099 500.312L535.032 495.793L530.19 492.565H525.348L523.088 491.758L518.408 488.691L513.566 486.431L509.369 483.042L506.626 482.396L504.205 480.782H499.524L495.812 478.2L493.714 474.488L495.812 468.516L498.071 467.225L499.524 465.288L503.236 469L506.141 467.709L508.401 465.126L512.275 465.288L513.082 466.74L515.341 467.225L519.376 469.807L521.636 470.453L527.123 468.839L531.965 469.484L536.485 468.677L539.228 467.709L541.165 466.095L543.425 465.61L549.074 466.095L552.302 464.158L553.593 464.481L556.821 462.544L558.596 464.319ZM432.22 397.337L433.35 398.789L436.255 406.86L435.287 409.442L433.189 412.67L434.48 417.189L433.511 435.751L432.543 440.431L431.09 441.077L426.41 439.14L423.989 439.624L422.052 438.656L421.568 443.498L418.663 446.888L413.821 446.565L412.691 445.596L408.817 439.463L408.172 432.523L409.14 430.424V426.389L410.915 426.228V423.484L408.01 421.547V418.481L409.14 416.221L408.979 412.025L407.687 410.572L406.396 406.86L402.845 402.986L403.007 397.498L408.494 398.467L410.593 397.982L415.596 395.561L418.985 391.526L421.245 390.719L423.666 387.814L424.796 389.267L428.347 390.558L430.283 392.979L431.736 393.786L430.606 396.046L432.22 397.337ZM445.616 347.624L446.101 349.884L442.066 350.691L440.29 348.916L444.971 348.593L445.616 347.624ZM506.787 256.27L506.464 257.723L501.138 261.435L502.268 263.695L505.98 264.824L503.398 268.214L503.882 269.828L505.98 270.151L505.334 273.379L508.401 275.154L510.822 277.253L511.145 279.351L508.724 279.512L509.854 278.544L506.626 274.993L503.398 276.446L498.233 274.993L494.843 278.221L492.422 278.867L489.679 280.642L484.514 282.579L481.609 281.933L479.995 283.063L479.349 288.067L480.64 289.035L483.061 293.232L485.805 295.007L484.675 298.074L483.223 299.203L481.124 298.396L480.64 301.14L482.093 308.403L484.352 313.568L486.289 315.667L490.647 319.217L495.005 320.993L503.236 326.965L507.755 328.74L508.885 329.87L511.79 334.389L514.373 339.554L517.278 347.786L519.376 351.821L523.088 356.502L530.836 363.119L537.776 367.8L544.232 370.867L549.074 371.351L560.372 370.705L564.568 371.835L565.214 373.772L564.568 375.225L559.888 378.614V381.358L562.309 383.295L573.768 388.46L585.389 392.656L588.94 394.916L593.297 398.305L603.627 402.986L605.402 405.246L611.858 410.088L614.764 413.961L615.571 416.867L613.15 423.968L610.567 423.161L607.501 421.063L602.497 412.347L594.427 411.54L589.747 409.442L588.617 407.182L584.905 406.537L582.806 407.989L580.547 411.217L578.126 416.06L575.705 423V425.744L577.48 428.488L582.161 430.102L586.034 432.523L588.617 435.105L589.101 441.239L590.554 444.628L589.101 446.726L586.034 446.242L581.999 447.372L579.256 449.632L578.126 451.891L578.933 457.379L578.449 459.639L573.122 463.674L570.54 467.709L568.926 471.421H561.986L560.21 469L560.049 465.449L561.017 463.351L563.6 462.221L565.052 457.702L564.245 454.474L566.021 451.891L570.54 450.761V446.081L568.28 443.982L566.021 435.751L562.147 428.81L559.888 422.677L558.112 419.772L555.853 418.158L549.881 417.674L542.456 413.477L541.972 411.702L542.941 409.926L541.165 405.407L537.937 402.663L533.741 403.632L531.804 403.47L531.643 401.049L528.415 398.951L524.057 398.628L522.927 397.498L518.731 391.042L515.987 388.298L512.275 388.46L505.98 387.007L502.752 388.137L497.587 383.94L493.068 382.488L483.868 373.933L480.963 370.705L475.314 367.154L471.602 361.989L468.697 360.053L462.241 357.793L461.756 355.695L456.753 350.691L454.009 349.077L451.911 345.688L447.876 344.881L448.037 340.523L446.101 334.874L443.357 331.323L441.42 322.768L440.129 320.347L437.224 318.572L430.768 316.635L421.568 311.147L419.792 310.986L414.305 308.888L410.915 308.565L406.719 310.502L401.716 315.667L397.681 321.154L396.228 322.123L390.74 324.06L385.898 324.867L385.576 322.446L388.965 318.249L388.481 315.021L383.155 315.989L374.923 312.116L373.471 310.663L373.309 308.403L372.179 306.305L374.439 302.27L375.73 301.14L374.923 298.396L369.758 296.137L367.337 291.133L368.629 290.488L371.695 290.81L374.439 288.712L376.376 288.228L377.667 284.193L374.762 281.61L372.018 277.414L370.565 276.446L370.404 273.863L374.6 271.119L376.86 272.249L380.734 271.442L384.93 269.828L389.933 271.119L393.807 268.86L396.389 265.309L395.421 262.888L400.909 258.207L402.523 259.175L402.845 263.21L406.719 266.439L410.27 267.407L409.624 269.344L411.722 271.281L413.175 273.54L415.112 272.41L413.982 269.667L414.305 268.053L417.856 263.856L418.663 262.081V257.4L421.891 257.238L423.182 260.628L426.41 261.919L431.09 260.144L432.22 260.305L434.48 263.372L436.417 262.888L433.996 257.238L434.964 254.333L437.062 253.849L438.676 255.302L441.743 255.624L440.936 252.719L441.743 247.716L446.585 248.2L448.037 249.491L451.427 250.137L453.202 249.491L455.139 245.94L457.399 244.972L462.886 244.488L467.89 244.81L475.475 242.389V246.102L480.479 251.751L482.254 252.558L496.135 254.979L502.591 255.463L506.787 256.27Z" fill="white" stroke="white" stroke-width="0.1" stroke-linecap="round" stroke-linejoin="round"/>
<path d="M424.312 243.035L422.375 242.874L422.213 240.13L423.02 237.709L424.796 241.744L424.312 243.035Z" fill="white" stroke="white" stroke-width="0.1" stroke-linecap="round" stroke-linejoin="round"/>
<path d="M728.551 33.2106V36.1158L727.421 41.1193L733.715 42.7334L731.617 44.3474L730.972 46.1229L725.161 45.9615L723.547 49.1895L722.256 50.158L718.06 51.1264L716.284 55.9685L716.93 59.6808L715.316 62.1018L714.509 65.3299L717.575 66.1369L719.028 67.9123V69.5264L715.8 69.8492L713.056 66.1369L711.442 67.2667L708.053 68.0738L705.793 70.0106L702.565 69.6878L701.274 73.8843L698.369 73.7229L693.043 75.8211L690.46 74.3685L684.488 74.8527L681.906 75.3369L677.225 74.6913L675.934 69.8492L674.159 68.3965L666.896 64.8457L663.184 63.7158L662.215 64.6843L660.117 61.4562V58.0667L661.731 53.0632L659.633 50.965L657.373 49.9965L655.921 47.8983L646.721 47.7369L642.847 46.7685L636.553 44.5088L633.325 42.572L630.419 42.8948L629.451 40.9579L629.774 38.3755L627.998 34.5018L625.416 29.8211L624.286 23.6878L628.805 20.9439L634.616 17.8773L642.202 15.6176L651.724 16.4246L658.664 16.2632L660.278 17.7158L662.861 16.586L670.769 17.3931L674.482 17.5544L680.453 19.0071L687.878 18.3614L690.622 16.2632L694.334 15.9404L698.207 20.6211L708.053 22.2352L709.505 22.8808L718.221 27.8843L722.417 31.2737L724.838 32.4036L728.551 33.2106Z" fill="white" stroke="white" stroke-width="0.1" stroke-linecap="round" stroke-linejoin="round"/>
<path d="M353.296 167.498L353.78 171.049L356.201 173.632L360.72 175.407V177.667L359.267 179.119L358.299 183.961L356.201 182.832L352.973 183.8H350.713L347.324 181.863L349.099 179.119L345.871 175.246L346.194 172.502L348.454 168.467L350.552 166.368L353.296 167.498Z" fill="white" stroke="white" stroke-width="0.1" stroke-linecap="round" stroke-linejoin="round"/>
<path d="M734.522 -10.8526L737.589 -10.3684L738.396 -8.59299L743.561 -5.84916L744.691 -2.29827L743.399 0.284199L742.915 5.28772L745.82 4.80348L747.434 5.77191L747.919 7.70877L750.662 11.0982L752.761 12.3895L755.827 19.1684L755.343 21.9123L753.245 22.2351L750.985 23.5263L746.95 27.4L746.305 30.1439L741.301 29.9824L736.459 29.3368L734.684 29.821L732.747 32.2421L728.551 33.2105L724.838 32.4035L722.417 31.2736L718.221 27.8842L709.505 22.8807L708.053 22.2351L698.207 20.6211L694.334 15.9403L690.622 16.2631L687.878 18.3614L680.453 19.007L674.482 17.5543L670.769 17.393L662.861 16.586L660.278 17.7158L658.664 16.2631L651.724 16.4246L642.202 15.6175L634.616 17.8772L628.805 20.9438L624.286 23.6877L622.995 19.1684L622.027 10.2912L622.188 5.77191L625.255 3.18944L626.546 1.25263L627.514 -6.01053L631.549 -11.8211L635.423 -12.4667L640.426 -14.0807L646.075 -15.5334L648.335 -12.4667L656.243 -7.62456L658.18 -6.01053L661.892 -0.522818L668.994 2.38243L673.997 1.41399L679.808 -2.45968L681.422 -4.23513V-6.01053L679.485 -13.5965L677.71 -16.8246L677.871 -18.9228L691.429 -23.4421L693.85 -21.8281L695.625 -22.9579L704.663 -18.9228L708.376 -18.1158L709.344 -16.986L714.993 -12.6281L719.512 -10.8526L725.968 -12.7895L731.456 -11.1755L734.522 -10.8526Z" fill="white" stroke="white" stroke-width="0.1" stroke-linecap="round" stroke-linejoin="round"/>
<path d="M689.653 361.344L694.979 366.509L700.467 369.414L703.211 374.74L704.663 376.354L703.856 379.098V385.877L700.628 386.361L700.306 389.751L695.625 391.365L690.299 390.396L685.457 391.042L684.166 391.526L681.422 395.561L677.548 397.66L673.836 396.691L672.383 397.66L664.959 398.144L662.861 396.368L660.278 396.691L658.18 392.818L656.243 391.042L654.307 387.491L653.984 384.425L652.854 381.196L654.145 379.905L653.661 376.516L654.468 372.319L657.212 372.804L658.019 371.512L658.342 367.316L663.829 364.895L665.443 364.733L668.026 366.67L670.447 363.604L673.836 362.958L677.387 362.474L680.615 361.021L683.681 361.505L687.394 360.214L689.653 361.344Z" fill="white" stroke="white" stroke-width="0.1" stroke-linecap="round" stroke-linejoin="round"/>
<path d="M622.834 330.839L623.479 332.775L627.676 335.519L630.742 338.747L635.584 341.33L638.974 342.137L647.528 346.818L647.689 348.432L645.107 349.077L644.784 350.207L641.556 350.853L643.009 353.274L642.686 355.372L637.198 357.309L635.907 353.919L634.132 353.435L628.967 361.99L627.676 362.474L623.641 362.151L626.223 365.218L628.967 366.509L629.451 367.477V372.481L626.062 370.544L624.609 367.639L619.606 362.958L613.957 359.73L614.118 358.116L611.536 358.277L609.599 355.211L611.374 353.597L611.536 352.305L609.76 349.723L608.792 344.881L609.599 343.751L612.343 343.428L612.181 341.007L612.988 338.263L616.216 335.519L619.929 335.197L617.669 331.646L622.834 330.839Z" fill="white" stroke="white" stroke-width="0.1" stroke-linecap="round" stroke-linejoin="round"/>
<path d="M662.215 64.6841L663.184 63.7157L666.896 64.8455L674.159 68.3964L675.934 69.8491L677.225 74.6912L680.615 82.9227L685.295 90.8315L688.039 96.642L689.492 102.937L688.523 105.519L682.067 108.263L680.776 109.07L677.548 113.428V115.365L682.874 117.463L685.78 119.077L687.071 120.691L686.748 124.565L687.394 126.34L686.102 128.761L686.264 130.86L687.878 133.442L689.815 136.347V138.446L694.172 142.965L697.239 147.484L699.499 149.098L697.562 151.196L700.467 155.393L700.628 157.491L698.692 160.396L693.85 161.203L686.102 168.628L682.229 172.986L676.741 180.088L675.773 181.702L678.194 187.835L678.032 190.74L681.099 193L680.453 194.453L675.127 193.323L673.675 193L664.475 189.933L663.184 187.674L661.57 186.544L656.566 184.93L650.756 184.446L645.591 184.768L643.331 187.189L640.426 187.028L636.553 185.414L631.711 185.575L627.998 187.189L626.223 190.579L623.479 189.61L621.22 190.256L620.251 185.898L617.992 185.253L613.15 180.41L609.599 182.509L607.985 185.253H604.434L603.627 182.832L601.529 182.509L600.722 179.926L596.203 176.375L595.396 173.47L591.038 172.179L590.231 172.502L584.582 169.596L581.677 171.21L580.063 170.242L575.705 166.53L577.964 165.723V163.14L572.154 164.27L566.828 161.203L563.277 160.235H561.179L563.923 164.109L558.274 168.144L556.66 167.498L554.239 164.431L551.011 161.526L548.428 160.074L551.011 158.137L552.14 156.361L549.235 154.424L544.07 155.554L542.779 154.102L538.421 152.326L530.997 150.551L529.383 148.775L528.899 147L523.573 145.709L523.734 148.775L520.345 149.421L522.927 143.61L523.573 139.898L520.99 134.733L517.439 133.281V130.698L514.373 125.695L515.664 123.919L516.794 119.723L515.503 116.656L512.275 112.944L513.243 108.747L510.983 106.003L505.657 102.614L503.075 100.354L504.205 97.7718L507.271 94.8666L507.755 90.5087L504.85 83.8911L503.72 79.6946L508.24 81.1473L509.369 80.3403L509.208 77.435L502.591 76.3052L502.429 74.3683L505.657 75.0139L511.79 72.7543L522.281 69.8491L533.418 67.1052L538.744 66.2982L541.972 62.7473L545.039 60.0034L551.172 58.8736L553.27 57.5824L557.789 55.6455L568.442 53.7087L577.319 53.063L586.034 56.7754L584.582 57.2596L579.74 55.3227L583.291 60.9719L585.066 62.9087L588.294 64.3613L591.038 64.8455L598.946 64.0385L602.497 62.2631L603.304 62.4245L613.957 63.0701L650.917 64.5227L662.215 64.6841Z" fill="white" stroke="white" stroke-width="0.1" stroke-linecap="round" stroke-linejoin="round"/>
<path d="M79.884 490.628L77.9472 490.951L70.6842 494.986H68.586L64.551 493.21L57.288 492.565L54.867 492.081L51.9618 493.21H49.5408L47.7654 494.824L46.4742 494.34L48.0882 490.951L50.6706 484.333V480.137L51.3162 476.586L50.832 473.196L49.7022 470.937L51.4776 465.288V462.382L50.025 458.67L54.5442 459.154L51.8004 456.895H49.3794L45.6672 458.347L43.2462 458.509L43.4076 456.249L42.6006 453.344L45.8286 452.375L48.411 449.631L47.9268 447.049L45.99 448.824L45.0216 451.084L40.5024 452.214L38.0814 451.407V448.34L39.0498 445.596L39.6954 441.884L40.9866 438.333L40.6638 436.074L43.2462 433.975L45.5058 430.909L52.446 416.544L51.4776 414.93L54.2214 404.277L56.1582 400.565L57.1266 393.624L56.8038 390.396L55.674 387.168L54.5442 380.228V377.968L53.0916 375.063L53.253 373.449L55.5126 370.705L57.4494 368.93L60.516 367.477L67.1334 365.863L68.7474 368.768L66.6492 371.835L68.1018 373.933L72.9438 372.158L77.6244 371.996L81.1752 373.288H83.4348L87.4698 371.835L88.761 369.575L91.182 370.382L99.5748 370.544L100.705 372.319L100.866 377.323L103.933 377.646L106.999 379.098L107.483 380.874L103.448 384.909L100.059 386.684L97.4766 388.944L95.7012 391.526L92.4732 394.109L93.7644 397.337L94.41 402.986L93.7644 409.119L94.41 410.895L90.0522 414.284L89.7294 415.898L91.989 417.996V421.063L89.2452 426.712L87.6312 427.519H80.691L78.9156 428.003L80.691 431.07L82.9506 433.007L83.4348 436.074L86.0172 441.238L88.761 441.884L89.568 443.175L88.5996 447.049L83.4348 451.891L81.9822 458.347L86.8242 465.288L89.568 464.965L88.4382 468.839L85.0488 469.807L79.3998 476.747L78.1086 480.298L79.884 490.628Z" fill="white" stroke="white" stroke-width="0.1" stroke-linecap="round" stroke-linejoin="round"/>
<path d="M798.76 282.902L801.181 285.484L804.086 286.937L810.542 288.389L811.51 286.453L812.963 286.937L815.545 286.13L819.096 284.032L822.647 283.709L826.198 284.839L829.264 287.744L828.941 294.684L827.812 298.074L817.805 300.172L818.45 299.203L817.321 295.975L815.707 294.361L814.254 296.137L815.222 298.881L814.093 301.14L813.77 305.014L814.738 306.467L812.156 309.695L811.349 311.793L812.64 319.54L811.994 325.512H808.766L804.57 324.705L801.019 323.575L796.984 319.379L794.24 320.186L792.788 319.218L787.623 318.572L780.36 314.86L775.679 315.505L768.578 316.958L763.413 318.895L758.087 322.284L756.15 324.867L753.568 326.319L749.855 327.288L743.077 326.965L727.905 324.221L723.87 325.028L718.221 324.382L709.667 322.768L703.372 322.284L697.4 323.253L695.948 320.347L698.853 317.119L691.913 313.084L690.622 311.147L688.039 309.695L687.232 306.951L691.267 304.046L686.425 301.463L683.681 302.27L680.938 305.175L678.839 305.498L677.225 303.561L674.804 302.432L669.155 301.302L666.734 299.365L663.345 298.396L663.668 297.428L666.573 296.137L662.861 294.361L665.282 291.133L663.829 289.358L659.633 288.067L653.5 285L649.949 282.095L649.303 275.477L648.012 275.8L645.107 272.572L640.426 269.828L637.682 266.6L642.847 265.147L645.107 265.954L649.142 262.726L653.338 263.211L655.436 261.758L657.857 254.172L661.247 251.751L660.924 249.653L663.506 245.295V243.358L665.766 240.937L666.896 236.902L669.155 234.642L668.994 231.898L670.931 230.284L673.997 226.411L681.422 224.635L684.973 220.923L688.362 219.47L689.815 217.533H690.944L695.302 219.954L699.66 219.793L710.797 222.053L716.607 220.923L718.544 221.407L725.484 226.733L728.873 225.926L730.487 223.989L735.975 221.891L749.533 219.954L751.308 216.888L751.631 214.628L757.603 213.337H760.992L765.027 215.919L769.062 220.761L773.904 228.67L776.325 230.768L780.36 235.933L783.749 238.839L785.848 241.582L790.69 244.972L792.949 249.653L795.209 253.365L796.016 258.046L794.563 265.793L794.725 269.989L796.984 278.06L795.532 279.189L798.76 282.902Z" fill="white" stroke="white" stroke-width="0.1" stroke-linecap="round" stroke-linejoin="round"/>
<path d="M637.682 266.6L640.426 269.828L645.107 272.572L648.012 275.8L649.303 275.477L649.949 282.095L653.5 285L659.633 288.067L663.829 289.358L665.282 291.133L662.861 294.361L666.573 296.137L663.668 297.428L663.345 298.396L666.734 299.365L669.155 301.302L674.804 302.431L677.225 303.561L678.839 305.498L680.938 305.175L683.681 302.27L686.425 301.463L691.267 304.045L687.232 306.951L688.039 309.695L690.622 311.147L691.913 313.084L690.46 314.214L690.137 317.281L686.748 318.895L686.102 322.607L687.071 326.481L690.944 332.775L695.625 335.196L697.723 337.779L700.306 339.393L699.821 341.652L697.239 344.396L695.464 346.979L692.558 347.14L690.783 348.109V353.435L693.043 358.116L691.267 360.86L689.653 361.344L687.394 360.214L683.681 361.505L680.615 361.021L677.387 362.474L673.836 362.958L672.868 360.86L674.482 359.407L676.418 354.242L676.741 352.305L669.155 350.368V348.27L665.605 346.333L665.282 345.203L661.57 341.814L657.05 339.716L655.275 337.617L652.531 339.07L653.5 341.652L652.854 343.267L650.11 345.365V347.624L647.689 348.431L647.528 346.817L638.974 342.137L635.584 341.33L630.742 338.747L627.676 335.519L623.479 332.775L622.834 330.839L623.963 329.547L627.998 330.031L628.321 326.481L623.156 320.509L623.963 319.217L628.967 319.379L629.451 318.088L624.125 313.407L620.251 311.47L619.444 310.179L619.606 305.982L622.188 301.624L622.995 297.589L620.574 296.298L616.055 297.428L617.669 294.845L616.539 290.649L619.283 290.003L622.995 289.842L621.542 287.421L616.7 285.807L614.764 284.193L615.409 280.965L613.311 280.319L612.988 277.737L610.406 273.379L611.536 270.958L614.925 268.86L617.507 269.667L621.058 268.052L623.479 265.47L625.093 264.986L629.774 265.631L631.549 265.309L636.068 265.793L637.682 266.6Z" fill="white" stroke="white" stroke-width="0.1" stroke-linecap="round" stroke-linejoin="round"/>
<path d="M675.127 193.323L672.706 198.165L671.415 202.846L668.833 205.589L668.994 209.625L662.054 211.4L661.085 211.077L657.535 207.526L655.275 206.074L647.851 207.204L643.816 206.235L639.458 206.074L636.553 206.719L633.97 212.368L625.9 216.404L620.251 214.144L619.121 214.467L617.507 216.888L613.634 217.856L606.694 218.502L604.434 219.632L603.788 221.246L604.595 223.344L603.627 224.958L592.329 225.604L584.743 225.442L582.161 224.312L575.382 219.954L571.993 219.47L568.28 214.79L565.698 210.109L565.537 208.818L566.989 204.944L568.765 200.425L571.024 198.488L576.835 199.295L579.578 198.972L581.999 197.842L585.389 194.775L587.971 193.484L589.101 188.642L592.813 186.705L593.782 185.414L597.01 182.993L601.529 182.509L603.627 182.832L604.434 185.253H607.985L609.599 182.509L613.15 180.411L617.992 185.253L620.251 185.898L621.22 190.256L623.479 189.611L626.223 190.579L627.998 187.19L631.711 185.575L636.553 185.414L640.426 187.028L643.331 187.19L645.591 184.768L650.756 184.446L656.566 184.93L661.57 186.544L663.184 187.674L664.475 189.933L673.675 193L675.127 193.323Z" fill="white" stroke="white" stroke-width="0.1" stroke-linecap="round" stroke-linejoin="round"/>
<path d="M562.793 256.916L558.758 255.947L557.305 257.239V259.982H554.077L552.948 261.596L545.846 264.34L545.2 266.6L546.653 268.053L546.976 271.604L546.33 273.379L542.941 274.347L539.551 275.961L541.165 277.737L540.036 278.867L541.327 282.579L539.39 283.225L536.808 282.902L533.58 281.772L531.481 282.579L529.06 281.449L524.864 278.06L522.927 281.611L521.959 282.095L516.148 282.256L514.373 281.449L512.113 283.547L506.787 282.256L505.98 281.288L508.724 279.512L511.145 279.351L510.822 277.253L508.401 275.154L505.335 273.379L505.98 270.151L503.882 269.828L503.398 268.214L505.98 264.825L502.268 263.695L501.138 261.435L506.464 257.723L506.787 256.27L514.857 257.723L522.927 258.853L527.769 256.916L529.383 254.818L532.45 253.688L536.646 253.365L541.165 253.688L544.878 251.912L547.46 251.589L551.334 252.396L551.495 249.33L553.593 247.877L557.467 248.039L559.726 253.365L562.793 256.916Z" fill="white" stroke="white" stroke-width="0.1" stroke-linecap="round" stroke-linejoin="round"/>
<path d="M540.035 18.5228L537.614 18.0386L537.13 11.9052L540.358 4.48073L541.972 3.99649L546.33 -6.49474L547.137 -3.26667L544.716 1.89826L544.232 5.44911L543.263 6.25612L540.035 18.5228ZM582.322 -18.1158L580.224 -15.8561L577.964 -15.0491L578.126 -9.72281L580.547 -7.78595L578.449 -6.97893L577.319 -4.07369L574.414 -3.10526L571.993 -0.522793L571.508 2.05967L568.119 3.51229L570.056 -0.36138L568.603 -1.49122L566.344 -4.88071L566.989 -6.33333L566.021 -11.4983L570.379 -16.179L572.477 -17.9544L577.803 -19.5684H579.901L582.322 -18.1158ZM641.717 -200.502L637.36 -200.018L633.809 -200.986L632.195 -200.502L626.062 -200.018L624.286 -198.888L620.897 -200.018L617.669 -201.954L614.441 -200.179L611.858 -201.793L610.244 -198.726L610.406 -195.821L607.501 -196.144L607.985 -194.368L604.757 -191.947L599.592 -191.625L600.722 -189.204L599.269 -188.074L600.883 -185.33L598.785 -182.909L595.396 -179.842L594.589 -178.228L597.332 -176.453L599.915 -172.418L602.497 -170.642L601.852 -168.705L598.462 -166.93L594.911 -164.186L591.683 -157.246L586.68 -155.147L582.806 -152.565L577.964 -151.435L574.091 -147.884L571.186 -149.175L568.765 -148.368L567.151 -145.463L564.084 -143.042L560.21 -143.365L560.533 -142.074L556.821 -141.589L555.207 -135.133L551.656 -134.165L550.526 -132.874L549.074 -133.842L545.684 -133.681L548.267 -129.161L545.523 -126.256H543.586L541.165 -125.126L538.099 -126.418L537.776 -124.481L539.067 -122.382L541.165 -120.768L541.004 -118.67L539.551 -111.73L540.681 -108.825L537.292 -106.888L536 -105.112L536.969 -102.368L536.807 -100.593L537.937 -97.5263L539.228 -90.7474L541.004 -87.5193L540.842 -84.9368L542.941 -83.4842L546.33 -83.6456L548.59 -81.0631L553.593 -82.3544L554.884 -80.5789L559.565 -77.028L562.309 -76.5439L565.375 -74.607V-72.1859L570.056 -70.5719L573.122 -67.3438L574.414 -64.7614L574.252 -63.1474L570.056 -60.7263L567.958 -58.6281L561.824 -55.2386L560.856 -55.4L557.467 -53.7859L560.695 -52.8175L562.954 -53.9474L567.151 -54.9158L569.41 -52.9789L565.859 -52.1719L565.375 -49.5894L564.084 -47.9754L560.856 -46.8456L556.337 -44.4246L549.881 -42.1649L548.105 -40.2281L543.909 -38.614L541.811 -37.3228H535.678L529.706 -37.4842L531.32 -36.0316L532.772 -36.3544L538.583 -35.7088L541.327 -33.6105L536.485 -32.1579L539.228 -26.993L538.099 -25.7017L538.744 -20.0526L536.969 -19.8912L536.485 -17.6316L537.453 -13.5965L539.067 -10.207L538.906 -8.59297L536.485 -4.71929L537.937 -0.0386022L535.516 8.51581L532.45 13.5193L530.351 20.1368L527.446 22.3965L523.573 20.9439L518.085 21.7509L512.92 21.2667L508.078 21.5895L506.787 22.2351L507.917 24.4947L504.205 24.1719L501.461 25.9474L498.233 29.3369V31.7579L501.299 36.6L498.556 39.8281H496.78L491.615 39.0211L482.738 40.9579L474.507 39.3438L475.314 37.7298L475.637 32.7263L474.668 29.9825L472.57 28.207L467.567 22.0737L465.63 18.3614L469.504 19.8141L471.118 19.007L468.212 14.8105L471.763 14.6491L472.893 13.0351L471.925 10.614L468.858 9.64561L465.791 5.77193L462.886 3.83507L457.237 -3.75086L455.139 -8.91579L453.364 -8.43155L451.427 -14.4035L448.683 -15.3719L447.715 -21.3438L444.809 -21.9895L442.711 -24.7333L442.066 -29.8982L440.129 -30.8667L438.838 -33.1263L437.546 -37.9684L437.062 -42.3263L435.61 -45.2316L436.417 -47.1684L438.192 -47.4912L439.967 -46.2L441.581 -43.2947L444.648 -43.6175L445.778 -45.8772L446.746 -52.1719L444.164 -59.2737L446.585 -61.6947L448.037 -65.5684L452.234 -66.6982L454.332 -67.9895L457.399 -71.2176L457.56 -75.7368L458.528 -79.1263L457.721 -81.386L452.718 -89.2947L452.234 -91.8772L455.139 -92.8456H459.013L461.111 -96.8807L461.756 -99.9474L456.269 -104.305L454.332 -104.951L448.199 -108.34L449.651 -118.67V-121.253L445.616 -128.354L445.778 -131.26L444.809 -135.779L446.585 -137.554L442.227 -144.172L445.455 -148.691L444.648 -151.112L446.585 -152.726L452.234 -158.86L457.56 -161.281L462.886 -161.926L474.346 -160.474L477.089 -164.025L476.928 -165.961L475.153 -170.642L467.567 -173.225L474.668 -181.295L479.995 -189.365L480.156 -196.951L481.124 -201.309L478.865 -207.603L484.998 -208.249L488.872 -209.056L494.198 -211.477L492.584 -215.512L494.682 -216.965L499.524 -221.646L504.85 -226.326L507.271 -227.94L507.594 -230.2L505.98 -232.298L501.622 -236.011L502.429 -237.786L506.787 -238.754L508.562 -240.53L510.983 -246.179L516.955 -249.246L519.376 -250.698L529.544 -247.793L532.934 -252.796L531.643 -258.607V-259.898L535.032 -260.705L541.649 -259.253L546.33 -259.091L560.21 -256.347L561.824 -256.186L565.859 -258.768L561.179 -260.221L563.761 -261.674L566.021 -264.74L565.859 -267.968L561.663 -270.551L569.894 -270.874L574.575 -269.582L575.221 -268.13L579.901 -266.354L587.648 -262.642L594.427 -259.737L607.823 -256.993L613.472 -254.088L615.409 -251.505L617.669 -251.344L620.735 -248.923L623.641 -247.47L621.865 -245.856L622.511 -241.982L623.641 -239.723L623.156 -236.656L627.676 -236.011L628.644 -233.912L627.03 -232.621L626.869 -230.846L628.16 -228.263L633.486 -224.067L634.454 -222.614L633.325 -220.354L633.486 -217.449L631.065 -215.351V-213.253L633.163 -209.056L636.068 -208.088L639.135 -204.537L641.717 -200.502Z" fill="white" stroke="white" stroke-width="0.1" stroke-linecap="round" stroke-linejoin="round"/>
<path d="M871.874 264.179V265.147L865.579 263.856L864.127 262.404L871.874 264.179ZM829.264 287.744L826.198 284.839L822.647 283.709L819.096 284.032L815.545 286.13L812.963 286.937L811.51 286.453L810.542 288.389L804.086 286.937L801.181 285.484L798.76 282.902L800.535 281.772L803.763 281.449L804.409 279.835L803.602 277.575L807.637 272.895V270.797L811.349 268.053L811.994 264.825L810.38 262.081L809.573 258.691L813.608 256.109L816.998 257.723L820.064 258.046L823.454 259.337L826.036 258.368L827.973 260.467L832.654 259.821L833.622 258.691L828.941 255.947L828.619 251.267L827.005 248.684L823.615 247.393L820.387 245.295L818.935 242.228V238.354L814.254 235.126L810.542 233.189L809.573 231.253L810.542 226.249L809.573 222.537L807.314 220.277L805.054 221.407L802.795 219.793L800.535 216.726L791.497 215.758L790.528 213.821L786.493 213.337L780.683 209.463L775.034 207.849L772.451 209.463L771.16 208.979L769.223 210.593L762.767 210.432L761.638 210.109L757.925 212.368L757.603 213.337L751.631 214.628L751.308 216.888L749.533 219.954L735.975 221.891L730.487 223.99L728.873 225.926L725.484 226.733L718.544 221.407L716.607 220.923L710.797 222.053L699.66 219.793L695.302 219.954L690.944 217.533H689.815L688.362 219.47L684.973 220.923L683.843 218.179L682.39 217.049L678.678 216.404L677.225 214.628L673.675 213.337L671.415 209.625H668.994L668.833 205.589L671.415 202.846L672.706 198.165L675.127 193.323L680.453 194.453L681.099 193L678.032 190.74L678.194 187.835L675.773 181.702L676.741 180.088L682.229 172.986L686.102 168.628L693.85 161.204L698.692 160.396L700.628 157.491L700.467 155.393L697.562 151.197L699.499 149.098L697.239 147.484L694.172 142.965L689.815 138.446V136.347L687.878 133.442L687.716 131.182L689.492 130.375L692.558 130.86L694.334 131.667L697.4 129.73L699.983 127.147L701.274 124.888L710.797 124.081L714.509 123.274L718.382 123.112L730.972 123.758L741.463 126.179L751.308 127.632H755.02L757.925 131.021L759.539 131.505L764.381 131.344L766.157 131.99L767.448 134.249L769.385 131.505L772.451 132.312L775.518 131.182L783.749 132.797L785.041 134.895L786.655 135.379L787.623 133.604L793.756 131.021L797.791 135.863L798.76 136.67L802.472 135.379L813.931 134.411L817.159 136.186L817.966 138.123L822.324 139.575L823.615 137.316L820.71 131.505L822.324 126.179L823.615 124.242L827.166 120.53L828.941 119.723L831.685 120.368L833.945 119.077L842.015 119.239L846.211 120.53L848.955 120.368L851.86 118.916L852.667 115.042L855.25 114.074L861.221 115.526L862.835 115.365L867.193 113.428L869.776 113.105L873.003 113.589L878.491 113.267L882.526 115.526L884.786 117.786L887.529 122.144L893.985 126.986L893.824 128.6L889.143 129.407L891.242 132.474L892.049 135.702L893.985 138.446L893.34 140.06L898.343 140.221L903.024 141.835L909.641 141.028L912.062 144.579L915.129 144.902L915.452 146.354L917.711 150.874L919.164 152.649L918.841 155.554L919.648 157.168L922.715 159.751L923.844 161.365L925.62 162.011L929.332 159.751L933.851 160.396L938.209 163.625H941.921L944.665 165.4L946.925 163.302L953.865 161.849L957.577 160.235L959.191 160.396L962.903 163.302L963.71 165.239L966.131 167.821L973.717 172.502L975.815 171.533L977.268 169.112L981.464 171.372L985.338 171.695L991.148 174.761L993.408 174.923L995.99 173.954L999.218 176.86L1002.28 177.182L1009.39 180.895L1014.07 180.411L1015.68 181.702L1015.52 184.446L1017.13 185.898L1016.97 190.095L1014.23 193.484L1010.52 194.775L1012.29 197.197L1017.3 198.649L1015.84 200.102L1013.58 199.779L1012.29 201.393L1011.81 205.105L1015.84 206.235L1017.78 210.754V212.53L1019.72 213.014L1017.62 220.6L1017.46 223.505L1010.68 223.828L1000.99 223.344L999.541 223.667L998.088 226.733L994.376 228.993L991.632 229.316L990.341 230.607V234.319L989.696 236.418L991.471 237.547L990.341 240.13L991.148 242.228L990.341 242.389L983.401 242.067L977.913 242.551L974.524 246.425H972.103L966.938 248.846L964.679 251.589L962.419 250.298L957.416 251.105L954.672 252.881L949.668 252.719L945.956 253.688L938.532 259.821L936.434 259.982L934.82 258.368L932.237 262.565L928.364 264.502L929.332 269.505L933.851 276.768L939.662 283.063L942.405 285.323L946.279 286.453L951.282 284.193L955.156 284.839L957.9 282.902L960.321 282.74L966.293 284.354L964.517 288.389L964.033 292.586L960.966 293.554L957.416 293.393L953.865 294.039L949.507 291.618H945.472L943.697 294.684L939.984 296.782L939.016 299.042L934.82 298.558L931.43 298.881L926.911 301.14L923.844 305.66L920.132 308.565L917.066 309.372L913.838 309.211L911.739 308.242L907.059 305.337L908.189 302.109L908.996 296.46L907.059 291.779L903.347 289.519L900.764 289.842L899.312 289.358L893.34 285.484L890.273 285.161L887.207 285.968L884.786 284.032L890.435 279.351L896.084 275.477L898.827 275.154L902.217 273.218L905.768 270.635L903.669 266.923L900.603 267.891L897.052 266.116L895.599 264.825L890.596 266.116L887.691 265.954L881.558 267.246L878.491 265.954L872.035 262.726L867.839 262.242V260.628L870.744 260.144L870.905 258.53L864.772 257.561L864.611 255.463L867.839 256.27L873.003 256.593L877.684 257.4L881.073 254.495L877.2 255.302L872.519 254.495L869.13 251.589L865.579 253.526L860.414 252.719L856.541 254.011L852.829 253.688L846.211 255.463L845.566 260.144L842.338 266.6L837.334 272.572L829.91 275.961L827.166 275.316L825.713 277.091L826.036 279.189L827.65 280.642L829.426 285.646L829.264 287.744Z" fill="white" stroke="white" stroke-width="0.1" stroke-linecap="round" stroke-linejoin="round"/>
<path d="M673.836 362.958L670.447 363.604L668.026 366.67L665.443 364.734L663.829 364.895L658.342 367.316L658.019 371.512L657.212 372.804L654.468 372.319L654.307 368.769L652.047 363.604L648.98 361.505L646.721 360.698L643.493 356.018L642.686 355.372L643.009 353.274L641.556 350.853L644.784 350.207L645.107 349.077L647.689 348.432L650.11 347.625V345.365L652.854 343.267L653.5 341.653L652.531 339.07L655.275 337.618L657.05 339.716L661.57 341.814L665.282 345.204L665.605 346.334L669.155 348.27V350.369L676.741 352.305L676.418 354.242L674.482 359.407L672.868 360.86L673.836 362.958Z" fill="white" stroke="white" stroke-width="0.1" stroke-linecap="round" stroke-linejoin="round"/>
<path d="M315.851 136.509L314.882 138.446L309.718 140.867L303.423 139.091L301.486 140.06L299.549 138.93L299.065 136.832L303.584 136.186L309.233 137.316L311.654 136.347L313.591 137.154L315.851 136.509ZM310.363 127.954L312.784 130.214L310.363 130.698L307.781 129.084L310.363 127.954ZM339.577 114.235L334.735 113.589L333.282 112.46L337.156 109.716L342.32 107.295L345.064 107.94L345.871 109.393L344.096 111.168L339.577 114.235ZM327.31 95.6736L325.535 97.449L324.566 95.1894L327.31 92.9298V95.6736ZM315.851 136.509L311.654 135.218L308.104 136.025L303.584 134.895L300.841 132.796L302.777 131.667L306.49 131.505L312.946 132.635L314.882 131.182L313.914 129.568L310.202 126.179L312.784 121.821L315.044 120.207L320.209 114.074L321.661 110.846L323.598 101.968L325.212 98.7403L327.472 99.5473L330.7 98.2561L336.187 95.028L337.801 92.2842L339.415 90.8315L345.871 88.2491L349.261 87.6035L363.625 86.7964L366.53 89.5403L370.888 90.5087L371.05 97.449L369.92 100.193L368.144 106.326L363.141 106.165L362.173 108.747L363.302 110.361L367.499 110.846L368.79 112.46L367.822 116.656L363.625 119.239L363.141 120.691L364.755 122.144L363.625 123.758L356.362 125.856L352.65 124.565L349.745 125.695L348.615 127.47L353.618 134.088V136.025L351.52 140.544L352.65 142.481L349.099 145.063L348.292 146.354L351.359 148.291L350.39 152.165L348.454 152.003L344.58 151.519L343.45 149.744L345.226 147.646L346.84 142.965L342.643 141.189L339.899 139.091L336.833 139.737L332.636 137.477L331.829 134.895L327.794 136.186L326.019 134.088L323.598 135.702L321.177 134.41L318.917 135.54L319.24 136.993L315.851 136.509ZM345.064 111.33L346.517 109.877L345.71 106.81L342.32 106.326L341.513 105.035L342.159 101L337.64 100.354L336.994 96.3192L334.573 96.8034L330.861 99.2245L331.829 101.323L334.412 103.905V105.358L331.022 106.488L331.184 110.684L330.861 113.267L339.577 115.526L345.064 111.33Z" fill="white"/>
<path d="M315.851 136.509L314.882 138.446L309.718 140.867L303.423 139.091L301.486 140.06L299.549 138.93L299.065 136.832L303.584 136.186L309.233 137.316L311.654 136.347L313.591 137.154L315.851 136.509ZM315.851 136.509L311.654 135.218L308.104 136.025L303.584 134.895L300.841 132.796L302.777 131.667L306.49 131.505L312.946 132.635L314.882 131.182L313.914 129.568L310.202 126.179L312.784 121.821L315.044 120.207L320.209 114.074L321.661 110.846L323.598 101.968L325.212 98.7403L327.472 99.5473L330.7 98.2561L336.187 95.028L337.801 92.2842L339.415 90.8315L345.871 88.2491L349.261 87.6035L363.625 86.7964L366.53 89.5403L370.888 90.5087L371.05 97.449L369.92 100.193L368.144 106.326L363.141 106.165L362.173 108.747L363.302 110.361L367.499 110.846L368.79 112.46L367.822 116.656L363.625 119.239L363.141 120.691L364.755 122.144L363.625 123.758L356.362 125.856L352.65 124.565L349.745 125.695L348.615 127.47L353.618 134.088V136.025L351.52 140.544L352.65 142.481L349.099 145.063L348.292 146.354L351.359 148.291L350.39 152.165L348.454 152.003L344.58 151.519L343.45 149.744L345.226 147.646L346.84 142.965L342.643 141.189L339.899 139.091L336.833 139.737L332.636 137.477L331.829 134.895L327.794 136.186L326.019 134.088L323.598 135.702L321.177 134.41L318.917 135.54L319.24 136.993L315.851 136.509ZM310.363 127.954L312.784 130.214L310.363 130.698L307.781 129.084L310.363 127.954ZM339.577 114.235L334.735 113.589L333.282 112.46L337.156 109.716L342.32 107.295L345.064 107.94L345.871 109.393L344.096 111.168L339.577 114.235ZM327.31 95.6736L325.535 97.449L324.566 95.1894L327.31 92.9298V95.6736ZM345.064 111.33L346.517 109.877L345.71 106.81L342.32 106.326L341.513 105.035L342.159 101L337.64 100.354L336.994 96.3192L334.573 96.8034L330.861 99.2245L331.829 101.323L334.412 103.905V105.358L331.022 106.488L331.184 110.684L330.861 113.267L339.577 115.526L345.064 111.33Z" stroke="white" stroke-width="0.1" stroke-linecap="round" stroke-linejoin="round"/>
<path d="M264.526 446.726L263.88 448.34L260.652 447.695V445.274L262.589 442.691L266.947 441.561L268.238 443.66L264.526 446.726ZM299.549 424.775L301.486 425.582L303.584 424.775L305.844 425.421L306.167 427.035L302.616 432.684L301.648 434.944L298.258 437.042L291.802 434.298L291.318 431.716L289.058 430.586L286.315 432.684L284.055 431.07L283.571 429.133L292.125 423.161L294.546 421.709L299.711 420.256L300.518 422.193L299.549 424.775ZM323.275 423.484L322.791 423.807L316.496 420.74L313.914 420.095L314.075 417.835L318.272 417.512L321.661 418.642L323.598 421.547L323.275 423.484ZM198.352 333.905L199.159 336.003L206.099 338.102L205.615 343.267L208.52 342.621L215.621 345.365L219.172 345.688L222.723 349.077L228.533 348.432L233.698 351.821L238.702 351.175L239.831 351.821H247.417L248.708 347.947L255.164 349.723L259.199 351.337L261.943 351.821L263.719 354.242V357.632L264.848 358.277L269.368 356.502L273.887 358.439L275.985 360.375L279.374 358.6L286.96 360.537L288.897 359.246L295.03 357.47L300.034 358.439L301.97 361.989L299.065 362.796L298.742 365.056L300.679 367.154L300.841 370.544L295.999 375.063L281.957 382.649L277.276 387.007L266.624 389.428L259.361 391.849L255.81 392.656L249.193 398.789L250.968 399.274L252.905 401.21L252.259 402.179L248.224 403.954H246.772L242.091 411.379L237.895 416.705L235.474 419.126L233.053 422.516L227.888 431.554L227.726 434.137L230.309 443.014L233.86 447.372L237.733 449.147L238.702 450.761L237.41 452.375L233.537 455.119L226.597 458.832L223.691 461.898L223.207 464.804L221.109 466.095L220.302 470.13L217.397 477.232L219.495 479.168L217.397 480.46L206.906 480.944L200.288 485.463L197.06 489.337L193.994 496.6L190.443 500.796L188.829 501.603L186.408 499.667L183.341 499.505L180.275 499.989L178.661 501.603L176.24 502.411L173.819 501.603L166.394 501.281L162.682 502.572L159.616 501.765L154.451 501.281L143.153 502.249L136.697 507.737H131.209L126.206 509.674L122.816 514.516L122.009 517.098L120.395 516.614L119.911 518.551L116.522 519.842L112.648 518.228L109.42 515.807L107.806 515.646L105.224 512.095L103.287 507.091V505.316L100.866 504.347L100.382 502.088L100.705 499.505L98.7678 496.277L90.6978 490.305L84.726 489.821L79.884 490.628L78.1086 480.298L79.3998 476.747L85.0488 469.807L88.4382 468.839L89.568 464.965L86.8242 465.288L81.9822 458.347L83.4348 451.891L88.5996 447.049L89.568 443.175L88.761 441.884L86.0172 441.239L83.4348 436.074L82.9506 433.007L80.691 431.07L78.9156 428.003L80.691 427.519H87.6312L89.2452 426.712L91.989 421.063V417.996L89.7294 415.898L90.0522 414.284L94.41 410.895L93.7644 409.119L94.41 402.986L93.7644 397.337L92.4732 394.109L95.7012 391.526L97.4766 388.944L100.059 386.684L103.448 384.909L107.483 380.874L106.999 379.098L103.933 377.646L100.866 377.323L100.705 372.319L99.5748 370.544L91.182 370.382L88.761 369.575L87.4698 371.835L83.4348 373.288H81.1752L77.6244 371.996L72.9438 372.158L68.1018 373.933L66.6492 371.835L68.7474 368.768L67.1334 365.863L60.516 367.477L57.4494 368.93L55.5126 370.705L53.4144 370.544V366.509L57.6108 362.312L55.0284 361.989L56.9652 358.923L55.3512 357.309L55.5126 353.112L51.8004 354.565L50.9934 352.628L53.253 349.077L50.9934 348.754L47.2812 344.719L48.5724 339.716L51.8004 338.102L54.867 335.681L59.0634 336.165L61.8072 335.681L67.6176 333.098L66.972 330.677L67.6176 329.547L72.7824 326.803L76.0104 326.481L79.077 325.028L81.1752 325.835L82.9506 325.674L85.0488 326.642L87.7926 329.225L91.8276 330.193L95.0556 329.386L100.866 329.225L103.61 329.547L108.775 329.063L111.68 329.225L116.36 327.933L120.073 329.547L127.174 330.193L131.371 331.484L142.991 333.744H147.349L153.321 332.453L155.903 331.646L158.324 332.13L161.714 331.161L165.426 332.775L173.012 334.874L176.401 332.775L181.889 333.744L187.215 335.842L190.12 336.003L194.317 335.519L198.352 333.905Z" fill="white" stroke="white" stroke-width="0.1" stroke-linecap="round" stroke-linejoin="round"/>
<path d="M427.217 348.916L426.733 352.628L428.347 355.372L429.315 365.863L426.41 371.028L426.571 375.87L423.989 382.81L422.698 384.586L416.564 381.358L414.628 379.582L416.242 376.677L412.691 375.225L413.336 372.481L413.014 371.028L410.431 370.221L412.045 368.123V366.832L409.624 365.218L409.14 363.765L411.238 361.99L410.27 360.537L410.431 358.439L411.884 355.372L413.821 353.919L418.34 352.628L420.277 350.853L423.343 351.821L424.312 349.884L423.989 345.526L424.473 343.751L426.571 344.558L427.217 348.916ZM211.102 271.604L210.457 273.863L207.39 269.99L209.004 269.182L211.102 271.604ZM347.324 181.863L350.713 183.8H352.973L356.201 182.832L358.299 183.961L360.559 184.123L366.208 191.063L369.113 189.933L371.372 190.579L371.857 192.032L375.246 192.193L380.088 191.225L383.316 193.484L391.063 194.775L393.646 195.744L393.807 197.842L388.158 203.975L385.898 212.853L384.284 215.758L383.8 218.179L384.123 222.053L383.155 225.281V227.702L384.93 229.8L382.509 230.93L381.218 233.189L376.86 233.674L375.569 232.382H373.793L370.888 234.642L372.986 236.418L372.018 237.87L365.885 244.326L362.495 245.779L361.688 250.46L356.846 254.011L355.071 258.691L356.362 259.821L355.878 262.242L353.457 263.856V265.47L355.717 265.632L359.429 263.049L358.622 260.951L362.334 258.53L365.401 258.368L368.951 258.853L370.243 262.404L369.436 265.147L373.148 268.86L374.6 271.119L370.404 273.863L370.565 276.446L372.018 277.414L374.762 281.611L377.667 284.193L376.376 288.228L374.439 288.712L371.695 290.811L368.629 290.488L367.337 291.133L369.758 296.137L374.923 298.396L375.73 301.14L374.439 302.27L372.179 306.305L373.309 308.404L373.471 310.663L374.923 312.116L383.155 315.99L388.481 315.021L388.965 318.249L385.576 322.446L385.898 324.867L384.93 325.351L383.639 325.835L379.765 327.611L373.471 333.098L370.565 334.712L369.436 337.618L366.208 339.877L362.334 340.684L358.622 342.298L356.846 341.653H352.327L349.583 339.716L344.096 338.425L342.32 335.519L338.285 335.358L336.994 332.937L333.928 333.421L331.507 334.551L328.279 334.389L318.756 331.484L316.496 329.225L313.753 330.032L311.17 332.614L300.679 339.232L296.483 346.172L296.321 348.109L297.451 354.404L300.034 358.439L295.03 357.47L288.897 359.246L286.96 360.537L279.374 358.6L275.985 360.375L273.887 358.439L269.368 356.502V354.081L265.171 353.112L263.719 354.242L261.943 351.821L259.199 351.337L255.164 349.723L248.708 347.947L247.417 351.821H239.831L238.702 351.175L233.698 351.821L228.533 348.432L222.723 349.077L219.172 345.688L215.621 345.365L208.52 342.621L205.615 343.267L206.099 338.102L199.159 336.003L198.352 333.905L201.58 333.098L204.646 330.032L207.39 318.572L209.488 305.175L211.102 302.593L213.039 301.947L211.425 300.011L209.65 302.432L210.779 290.165L211.586 285.646L213.039 280.804L218.042 284.677L219.334 286.291L220.786 291.779L221.755 291.94L219.979 284.516L217.074 280.804L211.264 277.091L210.457 274.993L213.362 274.025L212.555 271.119L211.748 261.597L206.906 260.628L199.159 256.432L196.415 252.235L193.832 249.168L193.187 246.425L194.639 243.519L193.348 241.744L191.089 240.453L192.864 237.87L188.022 237.547L185.117 236.74L184.633 234.965L186.731 232.705L184.148 231.414L179.952 231.737L179.629 228.993L176.078 229.477L174.142 228.993L172.366 227.218L170.268 227.54L166.717 226.895L165.426 225.765L157.679 223.667L154.451 223.505L151.384 224.474L149.609 223.99L147.511 220.439L142.507 218.663L143.476 217.533L148.479 216.565L149.447 215.435L145.897 213.982L145.574 212.046L148.156 212.53L148.318 210.593L141.862 210.754L141.216 208.656L142.023 206.396L145.735 204.46L155.096 202.2L159.131 202.523L161.875 202.2L166.717 199.618L171.398 198.972L175.756 200.263L179.791 204.782L181.727 206.396L186.731 203.653L193.832 203.814L195.285 205.267L197.222 202.523L198.836 204.137L206.422 203.814L204.001 199.779L203.678 190.095L201.58 187.351L198.19 180.411L198.513 178.151L203.678 178.635L208.036 177.667L210.134 178.312L210.618 182.832L212.393 185.414H215.944L219.656 186.221L224.498 186.382L231.439 187.674L234.344 186.867L239.993 183.639L237.088 182.509L236.765 181.379L238.217 177.828L246.61 173.793L252.582 172.663L258.715 170.565L261.943 168.305L263.88 165.4L264.687 163.302L265.171 152.326L266.785 148.775L271.466 146.193L281.795 144.418L283.248 143.611L284.701 147.161V149.098L289.381 152.972L294.546 151.358L297.128 154.263L297.935 157.491L304.714 159.267L305.683 162.495L307.135 162.011L312.946 162.656L315.528 164.432L314.882 167.014L316.012 168.144L314.882 170.404L315.689 171.372L319.402 171.856L322.952 171.372L325.051 170.404L325.858 168.144L328.924 167.175L327.633 171.533L328.601 172.502L329.247 175.73L331.991 175.891L337.317 178.312L341.836 182.509L347.324 181.863Z" fill="white" stroke="white" stroke-width="0.1" stroke-linecap="round" stroke-linejoin="round"/>
<path d="M79.884 490.628L77.9472 490.951L70.6842 494.986H68.586L64.551 493.21L57.288 492.565L54.867 492.081L51.9618 493.21H49.5408L47.7654 494.824L46.4742 494.34L48.0882 490.951L50.6706 484.333V480.137L51.3162 476.586L50.832 473.196L49.7022 470.937L51.4776 465.288V462.382L50.025 458.67L54.5442 459.154L51.8004 456.895H49.3794L45.6672 458.347L43.2462 458.509L43.4076 456.249L42.6006 453.344L45.8286 452.375L48.411 449.631L47.9268 447.049L45.99 448.824L45.0216 451.084L40.5024 452.214L38.0814 451.407V448.34L39.0498 445.596L39.6954 441.884L40.9866 438.333L40.6638 436.074L43.2462 433.975L45.5058 430.909L52.446 416.544L51.4776 414.93L54.2214 404.277L56.1582 400.565L57.1266 393.624L56.8038 390.396L55.674 387.168L54.5442 380.228V377.968L53.0916 375.063L53.253 373.449L55.5126 370.705L57.4494 368.93L60.516 367.477L67.1334 365.863L68.7474 368.768L66.6492 371.835L68.1018 373.933L72.9438 372.158L77.6244 371.996L81.1752 373.288H83.4348L87.4698 371.835L88.761 369.575L91.182 370.382L99.5748 370.544L100.705 372.319L100.866 377.323L103.933 377.646L106.999 379.098L107.483 380.874L103.448 384.909L100.059 386.684L97.4766 388.944L95.7012 391.526L92.4732 394.109L93.7644 397.337L94.41 402.986L93.7644 409.119L94.41 410.895L90.0522 414.284L89.7294 415.898L91.989 417.996V421.063L89.2452 426.712L87.6312 427.519H80.691L78.9156 428.003L80.691 431.07L82.9506 433.007L83.4348 436.074L86.0172 441.238L88.761 441.884L89.568 443.175L88.5996 447.049L83.4348 451.891L81.9822 458.347L86.8242 465.288L89.568 464.965L88.4382 468.839L85.0488 469.807L79.3998 476.747L78.1086 480.298L79.884 490.628Z" fill="white" stroke="white" stroke-width="0.1" stroke-linecap="round" stroke-linejoin="round"/>
</g>
<defs>
<clipPath id="clip0_18_90">
<rect width="720" height="503" fill="white"/>
</clipPath>
</defs>
</svg>
